<?xml version="1.0" standalone="no"?>
<!DOCTYPE svg PUBLIC "-//W3C//DTD SVG 1.1//EN" "http://www.w3.org/Graphics/SVG/1.1/DTD/svg11.dtd" >
<svg>
<metadata>
Created by FontForge 20090914 at Wed Oct 30 09:51:13 2013
 By www-data
&#194;&#174;1998 COMPUTORIUM
</metadata>
<defs>
<font id="FuturaExtended" horiz-adv-x="2364" >
  <font-face 
    font-family="FuturaExtended"
    font-weight="400"
    font-stretch="normal"
    units-per-em="2048"
    panose-1="2 11 11 0 0 0 0 0 0 0"
    ascent="1638"
    descent="-410"
    x-height="961"
    cap-height="1544"
    bbox="-105 -549.001 5392 2104"
    underline-thickness="25"
    underline-position="-38"
    unicode-range="U+0020-U+F002"
  />
<missing-glyph horiz-adv-x="1024" 
d="M128 0v1805h768v-1805h-768zM256 128h512v1549h-512v-1549z" />
    <glyph glyph-name=".notdef" horiz-adv-x="1024" 
d="M128 0v1805h768v-1805h-768zM256 128h512v1549h-512v-1549z" />
    <glyph glyph-name="space" unicode=" " horiz-adv-x="592" 
 />
    <glyph glyph-name="exclam" unicode="!" horiz-adv-x="656" 
d="M324 193c34 0 61.167 -10.999 81.5 -32.999s30.5 -50 30.5 -84c0 -32.667 -10.667 -61.334 -32 -86.001s-48 -37 -80 -37c-74 0 -115 39.667 -123 119c0 34 12 62.667 36 86s53 35 87 35zM236 1544h188v-1187h-188v1187z" />
    <glyph glyph-name="quotedbl" unicode="&#x22;" horiz-adv-x="899" 
d="M516 1544h201l-37 -671h-127zM185 1544h200l-37 -671h-129z" />
    <glyph glyph-name="numbersign" unicode="#" horiz-adv-x="1184" 
d="M373 1075l72 398h159l-75 -398h256l71 398h160l-72 -398h189v-167h-217l-56 -312h205v-164h-237l-80 -432h-156l76 432h-252l-84 -432h-152l76 432h-205v164h238l55 312h-215v167h244zM756 908h-252l-55 -312h252z" />
    <glyph glyph-name="dollar" unicode="$" horiz-adv-x="1184" 
d="M580 1579l-0.000976562 185.003h104v-187c68.667 0 136.667 -24.333 204 -73c62.667 -44.667 110.667 -99.334 144 -164.001l-159 -93c-46.667 79.333 -109.667 130.666 -189 153.999v-485c264 -103.333 396 -260.333 396 -471c0 -134 -46.333 -247.333 -139 -340
c-82 -82 -167.667 -128 -257 -138v-195h-104v195c-84.667 0 -164.667 24 -240 72c-142.667 90.667 -221 209.667 -235 357l184 40c32 -175.333 129 -271.333 291 -288v616c-182 81.333 -293 165.333 -333 252c-22.667 49.333 -34 102.666 -34 159.999
c0 128.667 52.667 236 158 322c54.667 44.667 124.334 71.667 209.001 81zM579.999 965.003v435.999c-54.667 -6.66699 -100.5 -30.667 -137.5 -72s-55.5 -89.666 -55.5 -144.999c0 -90 64.333 -163 193 -219zM683.999 717.002v-556.999c60 13.333 110.5 45.833 151.5 97.5
s61.5 108.5 61.5 170.5c0 117.333 -71 213.666 -213 288.999z" />
    <glyph glyph-name="percent" unicode="%" horiz-adv-x="1448" 
d="M396 1456c-64.667 0 -120.332 -21.666 -166.999 -64.999c-48.667 -44 -73 -98 -73 -162c0 -65.333 23.5 -119.833 70.5 -163.5s103.5 -65.5 169.5 -65.5c90.667 0 159 38 205 114c21.333 35.333 32 73.666 32 114.999c0 64 -23.333 117.833 -70 161.5
s-102.334 65.5 -167.001 65.5zM396.002 1577c136.667 0 240.331 -57.999 310.998 -173.999c32.667 -54 49 -112 49 -174c0 -98.667 -35.167 -182 -105.5 -250s-155.166 -102 -254.499 -102c-137.333 0 -240.666 58 -309.999 174c-32.667 54.667 -49 114 -49 178
c0 133.333 59.667 233.666 179 300.999c55.333 31.333 115.333 47 180 47zM1057 549.002c-91.333 0 -159.667 -37.6631 -205 -112.996c-22 -36.667 -33 -75.334 -33 -116.001c0 -64.667 23.333 -118.834 70 -162.501s102.667 -65.5 168 -65.5
c91.333 0 160.333 37.667 207 113c22 35.333 33 73.666 33 114.999c0 89.333 -40 155.666 -120 198.999c-36.667 20 -76.667 30 -120 30zM1057 672.006c138 0 241.333 -58.665 310 -175.998c32 -54.667 48 -113.334 48 -176.001c0 -134.667 -59.333 -236.334 -178 -305.001
c-55.333 -32 -115.333 -48 -180 -48c-64 0 -123.667 16 -179 48c-120.667 69.333 -181 171 -181 305c0 98 35.5 181.167 106.5 249.5s155.5 102.5 253.5 102.5zM1133 1577.01l92 -53l-905 -1557l-92 54z" />
    <glyph glyph-name="ampersand" unicode="&#x26;" horiz-adv-x="1415" 
d="M932 344l-344 419.998c-76 -51.333 -128 -87.666 -156 -108.999c-95.333 -72.667 -143 -153.667 -143 -243c0 -101.333 50.667 -179.666 152 -234.999c45.333 -24.667 93 -37 143 -37c98.667 0 214.667 68 348 204zM1239 691.998l125 -128.997l-188 -219l276 -344h-239
l-164 209c-144.667 -161.333 -299.667 -242 -465 -242c-171.333 0 -304.666 67.333 -399.999 202c-50 70.667 -75 142.667 -75 216c0 138 49.667 253.667 149 347c53.333 50 125.666 105.667 216.999 167c-77.333 85.333 -127.333 161.666 -150 228.999
c-12 36 -18 72.333 -18 109c0 137.333 54.333 235.666 163 294.999c54.667 30 118 45 190 45c146 0 250.333 -53.333 313 -160c28.667 -48.667 43 -102.334 43 -161.001c0 -76.667 -30.667 -150.667 -92 -222c-40.667 -47.333 -103.667 -101 -189 -161l326 -394zM629 1004
c138 95.333 207 181.998 207 259.998c0 52 -17.333 92.667 -52 122c-32 28 -74.667 42 -128 42c-46 0 -85.167 -14.667 -117.5 -44s-50.5 -66.666 -54.5 -111.999c0 -73.333 48.333 -162.666 145 -267.999z" />
    <glyph glyph-name="quotesingle" unicode="'" horiz-adv-x="568" 
d="M285 1579l160 -63l-273 -547l-116 47z" />
    <glyph glyph-name="parenleft" unicode="(" horiz-adv-x="600" 
d="M332 1657l147.001 -112.999c-58 -120.667 -102.667 -269.334 -134 -446.001c-28 -156 -42 -311 -42 -465c0 -350 58.667 -656 176 -918l-147 -111c-90.667 170 -154.334 384.667 -191.001 644c-18.667 132 -28 259 -28 381c0 396 73 738.667 219 1028z" />
    <glyph glyph-name="parenright" unicode=")" horiz-adv-x="600" 
d="M269 -396l-152.001 110.999c82.667 172.667 136.334 392.334 161.001 659.001c0 26.667 2.33301 79.667 7 159c2.66699 45.333 4 77.333 4 96c0 358 -57.333 664.667 -172 920l147 112c92 -174 155.333 -390.667 190 -650c16.667 -125.333 25 -254 25 -386
c0 -258.667 -31 -497 -93 -715c-31.333 -109.333 -70.333 -211.333 -117 -306z" />
    <glyph glyph-name="asterisk" unicode="*" horiz-adv-x="885" 
d="M303 1225l-172 102l66 117l180 -100v200h143v-192l164 96l72 -121l-176 -102l176 -100l-72 -121l-164 100v-196h-143v200l-176 -100l-72 117z" />
    <glyph glyph-name="plus" unicode="+" horiz-adv-x="1184" 
d="M504 613v436h176v-436h436v-177h-436v-436h-176v436h-436v177h436z" />
    <glyph glyph-name="comma" unicode="," horiz-adv-x="592" 
d="M336 244l160 -64l-273 -549l-110 49z" />
    <glyph glyph-name="hyphen" unicode="-" horiz-adv-x="680" 
d="M117 731h446v-151h-446v151z" />
    <glyph glyph-name="hyphen" unicode="&#x2010;" horiz-adv-x="680" 
d="M117 731h446v-151h-446v151z" />
    <glyph glyph-name="period" unicode="." horiz-adv-x="592" 
d="M297 205c34 0 62.333 -11.665 85 -34.998s34 -52 34 -86c0 -32.667 -11.667 -60.334 -35 -83.001s-51.333 -34 -84 -34c-31.333 0 -58.666 11.667 -81.999 35s-35 50.666 -35 81.999c0 33.333 11.167 61.833 33.5 85.5s50.166 35.5 83.499 35.5z" />
    <glyph glyph-name="slash" unicode="/" horiz-adv-x="1129" 
d="M920 1780l145 -68l-852 -1972l-149 67z" />
    <glyph glyph-name="zero" unicode="0" horiz-adv-x="1184" 
d="M592 1579c206.667 0 359 -117.332 457 -351.999c17.333 -41.333 32.666 -88 45.999 -140c25.333 -98 38 -203 38 -315c0 -136 -19.333 -262 -58 -378c-40 -120.667 -98.333 -219 -175 -295c-89.333 -88 -192 -132 -308 -132c-112 0 -211 40.667 -297 122
c-74 69.333 -132.333 162 -175 278c-46 124.667 -69 259.667 -69 405c0 199.333 39.667 374.666 119 525.999c98.667 187.333 239.334 281 422.001 281zM592 1415c-76 0 -143.333 -35.668 -202 -107.001c-46.667 -56 -83 -126.667 -109 -212c-30 -98 -45 -204.667 -45 -320
c0 -143.333 24.667 -275.333 74 -396c64.667 -160 158.667 -240 282 -240c142.667 0 246.334 105.333 311.001 316c30 98 45 204.667 45 320c0 146.667 -24 279.334 -72 398.001c-64.667 160.667 -159.334 241 -284.001 241z" />
    <glyph glyph-name="one" unicode="1" horiz-adv-x="1184" 
d="M520 1368h-268l109 176h344v-1544h-185v1368z" />
    <glyph glyph-name="two" unicode="2" horiz-adv-x="1184" 
d="M92 0l697.001 856c76 93.333 114 178.666 114 255.999c0 106 -50 189 -150 249c-44.667 26.667 -91.334 40 -140.001 40c-121.333 0 -211.333 -50.333 -270 -151c-26.667 -46 -40 -89 -40 -129h-190c18.667 185.333 97 317 235 395c72 40.667 154.667 61 248 61
c134 0 249 -44.667 345 -134c98 -91.333 147 -201.666 147 -330.999c0 -116 -37 -219.667 -111 -311l-508 -625h623v-176h-1000z" />
    <glyph glyph-name="three" unicode="3" horiz-adv-x="1184" 
d="M563 897c141.333 0 236.002 46 284.002 138c14.667 28 22 60.667 22 98c0 80.667 -25.5 147.167 -76.5 199.5s-116.5 78.5 -196.5 78.5c-68 0 -124.333 -20.167 -169 -60.5s-72.334 -94.5 -83.001 -162.5h-192c41.333 260.667 193.666 391 456.999 391
c175.333 0 304 -66.667 386 -200c38.667 -62.667 58 -134.334 58 -215.001c0 -157.333 -65.667 -275 -197 -353c144.667 -68 217 -195 217 -381v-37c-1.33301 -6 -2 -10 -2 -12c0 -64 -22.333 -131.667 -67 -203c-88 -140.667 -229.333 -211 -424 -211
c-183.333 0 -319 70 -407 210c-42.667 68 -64 136 -64 204h188c0 -41.333 15.333 -83.666 46 -126.999c56 -79.333 141.667 -119 257 -119c117.333 0 201.333 50 252 150c24.667 48.667 37 97.667 37 147c0 118 -41.333 204.667 -124 260c-43.333 28.667 -98.333 43 -165 43
h-37v162z" />
    <glyph glyph-name="four" unicode="4" horiz-adv-x="1184" 
d="M776 1037l-440 -646h440v646zM961 1612v-1221h176v-168h-176v-223h-185v223h-759z" />
    <glyph glyph-name="five" unicode="5" horiz-adv-x="1184" 
d="M465 1544l619.003 0.00195312v-176h-488l-96 -315l109 4c62.667 2 126.667 -12 192 -42c125.333 -58 213.333 -152.667 264 -284c26 -67.333 39 -133.333 39 -198c0 -154 -46 -282.667 -138 -386c-101.333 -114 -230 -174 -386 -180l-51 -2
c-68.667 -2.66699 -137.334 10.666 -206.001 39.999c-114.667 48.667 -202.334 125.667 -263.001 231l145 137c23.333 -72.667 81.666 -135 174.999 -187c50.667 -28 103 -42 157 -42c151.333 0 262 63 332 189c34 61.333 51 123.666 51 186.999
c0 133.333 -58 237.333 -174 312c-59.333 38 -120.333 57 -183 57c-128 0 -227.667 -45.667 -299 -137h-41z" />
    <glyph glyph-name="six" unicode="6" horiz-adv-x="1184" 
d="M776 1577l140 -91.998l-412 -557l4 -4c46 24.667 96.667 37 152 37c78.667 0 153 -22 223 -66c67.333 -42 121 -98.333 161 -169c42.667 -74.667 64 -160.334 64 -257.001c0 -173.333 -75 -311.333 -225 -414c-85.333 -58.667 -175.333 -88 -270 -88
c-90 0 -175.5 22 -256.5 66s-147.333 103.833 -199 179.5s-77.5 154.5 -77.5 236.5c2.66699 7.33301 4 14.666 4 21.999c0 117.333 56 251.333 168 402zM924 465.002c0 54.667 -17.335 108.334 -52.002 161.001c-32 48.667 -73 87.667 -123 117
c-52.667 30.667 -109 46 -169 46c-52 0 -103 -16.667 -153 -50c-46.667 -30.667 -84.667 -69.334 -114 -116.001c-31.333 -50.667 -47.666 -97 -48.999 -139c-2 -56 13.333 -112.667 46 -170c46 -82 111.667 -137 197 -165c28 -9.33301 55 -14 81 -14
c8.66699 3.33301 18.334 5 29.001 5c48 0 99 16.667 153 50c102.667 63.333 154 155 154 275z" />
    <glyph glyph-name="seven" unicode="7" horiz-adv-x="1184" 
d="M897 1368h-800v176h1112l-965 -1577l-147 93z" />
    <glyph glyph-name="eight" unicode="8" horiz-adv-x="1184" 
d="M856 1145c0 104 -43.3311 181.001 -129.998 231.001c-40.667 23.333 -85.334 35 -134.001 35c-68.667 0 -129.834 -25.833 -183.501 -77.5s-80.5 -111.834 -80.5 -180.501c0 -94.667 47.333 -171 142 -229c42 -26 84 -39 126 -39c80 0 152.333 45.333 217 136
c28.667 40.667 43 82 43 124zM893.002 428.001c0 120.667 -54.332 207.331 -162.999 259.998c-45.333 22 -91.333 33 -138 33c-86 0 -157 -25.667 -213 -77c-57.333 -53.333 -86 -122.666 -86 -207.999c0 -113.333 53.333 -199 160 -257c48 -26 95.667 -39 143 -39
c105.333 0 189.666 48.333 252.999 145c29.333 44.667 44 92.334 44 143.001zM353.003 800.998c-136.667 82 -205.001 207.001 -205.001 375.001c0 70 19.667 136.667 59 200c37.333 59.333 87.333 107.666 150 144.999c65.333 38.667 142.333 58 231 58
c186 0 318 -72.667 396 -218c35.333 -66 53 -138 53 -216c0 -150 -68.333 -264.667 -205 -344c78.667 -23.333 139.667 -71.333 183 -144c40 -66 60 -142.333 60 -229c0 -181.333 -77.333 -314.333 -232 -399c-75.333 -41.333 -161.666 -62 -258.999 -62
c-103.333 0 -190.333 22.667 -261 68c-142.667 92 -214 225.667 -214 401c0 82.667 21 157 63 223c44.667 68.667 105 116 181 142z" />
    <glyph glyph-name="nine" unicode="9" horiz-adv-x="1184" 
d="M709 637c-36.667 -24.667 -83.667 -36.998 -141 -36.998c-80 0 -158 24.667 -234 74c-147.333 96 -221 235.333 -221 418c0 122.667 44.333 233 133 331c98.667 109.333 219.667 164 363 164c95.333 0 184 -23.167 266 -69.5s147 -110.5 195 -192.5
c44.667 -76 67 -152.333 67 -229v-4c0 -88.667 -26.333 -179.334 -79 -272.001c-22 -38.667 -48 -78.334 -78 -119.001l-535 -726l-142 101l414 553zM625 1415c-119.333 0 -213.333 -55.667 -282 -167c-30.667 -50 -46 -102 -46 -156c0 -119.333 54.333 -212 163 -278
c50.667 -30.667 105.667 -46 165 -46c127.333 0 222.333 54.333 285 163c28.667 50 43 103.667 43 161c0 122 -55.667 215.333 -167 280c-49.333 28.667 -103 43 -161 43z" />
    <glyph glyph-name="colon" unicode=":" horiz-adv-x="592" 
d="M297 987c34 0 62.333 -11.167 85 -33.5s34 -50.5 34 -84.5c0 -32.667 -11.667 -61 -35 -85s-51.333 -36 -84 -36s-61 12 -85 36s-36 52.333 -36 85c0 33.333 11.833 61.333 35.5 84s52.167 34 85.5 34zM297 205c32.667 0 60.667 -11.332 84 -33.999
s35 -50.334 35 -83.001c0 -34 -11.333 -62.667 -34 -86s-51 -35 -85 -35c-33.333 0 -61.833 11.833 -85.5 35.5s-35.5 52.167 -35.5 85.5c0 32 12 59.5 36 82.5s52.333 34.5 85 34.5z" />
    <glyph glyph-name="semicolon" unicode=";" horiz-adv-x="592" 
d="M396 987c32.667 0 60.167 -12.167 82.5 -36.5s33.5 -52.833 33.5 -85.5c0 -31.333 -11.5 -58 -34.5 -80s-50.167 -33 -81.5 -33c-79.333 0 -119 40.333 -119 121c0 32 11.667 59 35 81s51.333 33 84 33zM320 244l159 -64l-270 -549l-112 49z" />
    <glyph glyph-name="less" unicode="&#x3c;" horiz-adv-x="1184" 
d="M68 596l1048 424v-192l-788 -303l788 -306v-190l-1048 424v143z" />
    <glyph glyph-name="equal" unicode="=" horiz-adv-x="1184" 
d="M68 789h1048v-176h-1048v176zM68 436h1048v-176h-1048v176z" />
    <glyph glyph-name="greater" unicode="&#x3e;" horiz-adv-x="1184" 
d="M1116 457l-1048 -424v186l788 306l-788 303v192l1048 -424v-139z" />
    <glyph glyph-name="question" unicode="?" horiz-adv-x="928" 
d="M469 205c47.333 0 82.333 -21.001 105 -63.001c9.33301 -17.333 14 -35.333 14 -54c0 -32 -11.833 -60.167 -35.5 -84.5s-51.5 -36.5 -83.5 -36.5c-32.667 0 -60.167 11.333 -82.5 34s-33.5 50.334 -33.5 83.001s11.333 61 34 85s50 36 82 36zM109 1164
c0 13.333 -2.66699 37.666 -8 72.999c0 59.333 18 116.333 54 171c74 112.667 178.667 169 314 169c162.667 0 274 -68 334 -204c24.667 -56 37 -108 37 -156c0 -111.333 -38.333 -198 -115 -260c-48.667 -39.333 -119.334 -72 -212.001 -98
c-39.333 -11.333 -71.666 -23 -96.999 -35c-61.333 -30 -92 -74 -92 -132c0 -38 14.833 -71.333 44.5 -100s63.167 -43 100.5 -43c44.667 0 81 15.667 109 47c26 30 39 67.667 39 113h184c0 -71.333 -21.833 -136.5 -65.5 -195.5s-99.5 -99.5 -167.5 -121.5
c-31.333 -10 -63.666 -15 -96.999 -15c-125.333 0 -221 54 -287 162c-32.667 53.333 -49 111.333 -49 174l4 5l1 3c0 123.333 74 214 222 272l122 48c103.333 40.667 159.333 92.334 168 155.001c0 86 -31.333 147.667 -94 185c-26.667 16 -56.334 24 -89.001 24
c-48 0 -90 -17.333 -126 -52s-54 -76 -54 -124c4.66699 -21.333 8 -43 10 -65h-190z" />
    <glyph glyph-name="at" unicode="@" horiz-adv-x="1641" 
d="M1028 740l4.00098 68.999c3.33301 62 -13 113.333 -49 154s-85 61 -147 61c-78 0 -143.333 -28.333 -196 -85c-58 -62.667 -87 -132 -87 -208c0 -67.333 16 -125.666 48 -174.999c37.333 -56.667 87.666 -85 150.999 -85l5 3l3 1c150 0 239.333 88.333 268 265z
M1256 1164l-122.999 -644.001c4 -32.667 15.667 -51 35 -55l18 -4c34.667 0 70.667 23.667 108 71c26.667 34 49.334 73 68.001 117c28.667 68 43 131.667 43 191c0 218.667 -82 382 -246 490c-86 56.667 -189.667 85 -311 85c-157.333 0 -296 -57.333 -416 -172
c-128 -122 -192 -270.667 -192 -446c0 -270 109.333 -466 328 -588c95.333 -53.333 207 -80 335 -80c63.333 0 127.333 7.33301 192 22c80 18 137.667 43.667 173 77l152 -119c-66.667 -38 -128 -67 -184 -87c-100.667 -36.667 -227.334 -55 -380.001 -55
c-187.333 0 -359.333 66.333 -516 199c-178.667 151.333 -268 356.333 -268 615c2.66699 8.66699 4 23 4 43c0 132.667 38 259.334 114 380.001c73.333 117.333 169 209.166 287 275.499s244.333 99.5 379 99.5c92 0 182 -18 270 -54c135.333 -55.333 243 -141 323 -257
s120 -246.333 120 -391c0 -39.333 -5.33301 -81.666 -16 -126.999c-7.33301 -32 -21.333 -74.333 -42 -127c-32.667 -84.667 -78.334 -154.667 -137.001 -210c-68.667 -64.667 -143.667 -97 -225 -97c-75.333 0 -119.666 43 -132.999 129c-82 -86 -175.667 -129 -281 -129
c-131.333 0 -231 66 -299 198c-34 66.667 -49.667 131.667 -47 195l2 43c3.33301 67.333 24.666 136 63.999 206s87 123.667 143 161c64 43.333 133 65 207 65c114.667 0 207.667 -49 279 -147l28 127h144z" />
    <glyph glyph-name="A" unicode="A" horiz-adv-x="1440" 
d="M721 1612l739 -1612h-208l-177 387h-706l-176 -387h-210zM721 1188l-272 -625h547z" />
    <glyph glyph-name="B" unicode="B" horiz-adv-x="1096" 
d="M131 1544h193.001c215.333 0 370.333 -48 465 -144c64 -64.667 96 -142 96 -232c0 -173.333 -58.667 -288 -176 -344c119.333 -10 210.666 -78.667 273.999 -206c30 -60.667 45 -126.667 45 -198c0 -140.667 -57.667 -248.667 -173 -324c-98 -64 -220.333 -96 -367 -96
h-357v1544zM324.001 1372v-512h88c195.333 0 293 85.333 293 256c0 95.333 -27.333 163.333 -82 204c-47.333 34.667 -120.333 52 -219 52h-80zM324.001 709v-537h155c238 0 357 84 357 252c0 98.667 -38 173 -114 223c-64.667 41.333 -149 62 -253 62h-145z" />
    <glyph glyph-name="C" unicode="C" horiz-adv-x="1352" 
d="M1272 303l0.000976562 -226.998c-127.333 -72.667 -261.666 -109 -402.999 -109c-106.667 0 -209 20.667 -307 62c-202.667 85.333 -348.334 231.666 -437.001 438.999c-43.333 101.333 -65 209.666 -65 324.999c0 170 52 321.333 156 454
c79.333 100.667 176.666 180.667 291.999 240c118 60 239.667 90 365 90c148.667 0 281.667 -33.333 399 -100v-225c-119.333 102 -256.666 153 -411.999 153c-163.333 0 -305.5 -61 -426.5 -183s-181.5 -265 -181.5 -429c0 -186.667 60.5 -341.5 181.5 -464.5
s263.167 -184.5 426.5 -184.5c147.333 0 284.666 53 411.999 159z" />
    <glyph glyph-name="D" unicode="D" horiz-adv-x="1360" 
d="M131 1544h322.001c168.667 0 319 -30.333 451 -91c149.333 -69.333 260.666 -172 333.999 -308c55.333 -102.667 83 -220 83 -352c0 -223.333 -67.333 -407.333 -202 -552c-150 -160.667 -366 -241 -648 -241h-340v1544zM324.001 1368v-1192h117
c293.333 0 495.333 96.333 606 289c52 90.667 78 194.334 78 311.001c0 200.667 -69.333 352.334 -208 455.001c-123.333 91.333 -289 137 -497 137h-96z" />
    <glyph glyph-name="E" unicode="E" horiz-adv-x="1067" 
d="M148 1544h829v-176h-637v-432h621v-176h-621v-584h637v-176h-829v1544z" />
    <glyph glyph-name="F" unicode="F" horiz-adv-x="973" 
d="M144 1544h749v-176h-553v-432h537v-176h-537v-760h-196v1544z" />
    <glyph glyph-name="G" unicode="G" horiz-adv-x="1596" 
d="M944 781h613.002v-68c0 -209.333 -68 -385.666 -204 -528.999c-138 -146 -311 -219 -519 -219h-44c-6.66699 1.33301 -11.334 2 -14.001 2c-106.667 0 -215.667 32.667 -327 98c-93.333 54.667 -170 122.667 -230 204c-118.667 161.333 -178 332 -178 512
c0 124.667 34 249 102 373c103.333 189.333 254 316.666 452 381.999c82.667 27.333 159 41 229 41c140 0 260.5 -23.167 361.5 -69.5s198.167 -122.166 291.5 -227.499l-141 -131c-127.333 168 -294 252 -500 252c-101.333 0 -198.333 -27.333 -291 -82
c-89.333 -52 -162.666 -122 -219.999 -210c-62 -94.667 -93 -200 -93 -316l4 -12c0 -112 28 -217.833 84 -317.5s131.667 -178.834 227 -237.501c89.333 -54.667 177.333 -82 264 -82c89.333 0 174.166 19.833 254.499 59.5s146.166 95.5 197.499 167.5
c56.667 79.333 85 157 85 233h-404v177z" />
    <glyph glyph-name="H" unicode="H" horiz-adv-x="1385" 
d="M131 1544h193v-620h737v620h191v-1544h-191v744h-737v-744h-193v1544z" />
    <glyph glyph-name="I" unicode="I" horiz-adv-x="475" 
d="M140 1544h192v-1544h-192v1544z" />
    <glyph glyph-name="J" unicode="J" horiz-adv-x="740" 
d="M428 1544h193.003v-999c0 -178 -27 -313 -81 -405c-68.667 -115.333 -184.334 -173 -347.001 -173c-79.333 0 -157.333 23.333 -234 70l97 160c57.333 -35.333 109.666 -53 156.999 -53c55.333 0 101.666 22 138.999 66c32 38 53 86.333 63 145
c8.66699 52 13 115.333 13 190v999z" />
    <glyph glyph-name="K" unicode="K" horiz-adv-x="1229" 
d="M148 1544h192v-667l656 667h251l-694 -692l707 -852h-260l-584 721l-76 -78v-643h-192v1544z" />
    <glyph glyph-name="L" unicode="L" horiz-adv-x="789" 
d="M148 1544h192v-1368h469v-176h-661v1544z" />
    <glyph glyph-name="M" unicode="M" horiz-adv-x="1745" 
d="M873 391l532 1221l316 -1612h-201l-180 1028l-467 -1065l-465 1069l-185 -1032h-194l315 1612z" />
    <glyph glyph-name="N" unicode="N" horiz-adv-x="1608" 
d="M129 1620l1159 -1220v1144h197v-1608l-1165 1217v-1153h-191v1620z" />
    <glyph glyph-name="O" unicode="O" horiz-adv-x="1696" 
d="M848 1401c-111.333 0 -214 -27.668 -308 -83.001s-168.833 -131.5 -224.5 -228.5s-83.5 -202.833 -83.5 -317.5c0 -112.667 27.167 -216.5 81.5 -311.5s129.5 -170.833 225.5 -227.5s199 -85 309 -85c110.667 0 213.167 27.833 307.5 83.5s169.5 131.834 225.5 228.501
s84 200.667 84 312c0 112 -27 216.333 -81 313s-128.833 173.5 -224.5 230.5s-199.5 85.5 -311.5 85.5zM848 1577c224.667 0 415.666 -77.9971 572.999 -233.997s236 -346.333 236 -571c0 -144.667 -35.667 -278.5 -107 -401.5s-169.666 -221 -294.999 -294
s-261 -109.5 -407 -109.5c-144.667 0 -278.667 35.667 -402 107s-221.666 169.666 -294.999 294.999s-110 259.666 -110 402.999c0 144.667 36 278.667 108 402s170.667 221.666 296 294.999c123.333 72 257.666 108 402.999 108z" />
    <glyph glyph-name="P" unicode="P" horiz-adv-x="1012" 
d="M148 1544h243.001c99.333 0 190 -7.66699 272 -23c107.333 -20 189.666 -69 246.999 -147c54 -73.333 81 -166 81 -278c0 -156 -57 -273 -171 -351c-96 -65.333 -204 -98 -324 -98h-156v-647h-196zM424.001 1372l-84 0.000976562v-553l64 -2
c271.333 -8.66699 407 89.666 407 294.999c0 173.333 -129 260 -387 260z" />
    <glyph glyph-name="Q" unicode="Q" horiz-adv-x="1696" 
d="M1155 236l-353.999 344h244l243 -244c118 125.333 177 283 177 473c0 78.667 -18.667 158.334 -56 239.001c-68 146.667 -181.667 250 -341 310c-76 28.667 -156 43 -240 43c-72.667 0 -148.667 -17.333 -228 -52c-116.667 -50.667 -208 -130.667 -274 -240
c-62.667 -104.667 -94 -222.334 -94 -353.001c0 -162 60.167 -304.5 180.5 -427.5s261.5 -184.5 423.5 -184.5c103.333 0 209.666 30.667 318.999 92zM1288 105c-140.667 -94.667 -284.665 -142.001 -431.998 -142.001c-116.667 0 -225.334 21.667 -326.001 65
c-204 88 -347.333 233 -430 435c-39.333 96 -59 193.667 -59 293c0 226.667 75.667 419.334 227 578.001c153.333 162 342.666 243 567.999 243c144.667 0 280.167 -36.333 406.5 -109s227 -171.167 302 -295.5s112.5 -257.833 112.5 -400.5
c0 -234.667 -80.667 -423.667 -242 -567l242 -238h-233z" />
    <glyph glyph-name="R" unicode="R" horiz-adv-x="1112" 
d="M148 1544h276c180 0 309 -28 387 -84c120 -86 180 -202 180 -348c0 -114 -33.667 -211.667 -101 -293s-157 -130.333 -269 -147l487 -672h-231l-457 652h-80v-652h-192v1544zM340 1372l0.000976562 -561c107.333 0 194.666 7.66699 261.999 23
c139.333 32 209 120.667 209 266c0 181.333 -135.667 272 -407 272h-64z" />
    <glyph glyph-name="S" unicode="S" horiz-adv-x="1100" 
d="M836 1252c-58 99.333 -142 149 -252 149c-97.333 0 -171.333 -38 -222 -114c-22.667 -34 -34 -67 -34 -99c0 -98 50.333 -166.333 151 -205l176 -68c179.333 -69.333 293 -160.666 341 -273.999c27.333 -64.667 41 -130 41 -196c0 -97.333 -27.333 -184.833 -82 -262.5
s-127.667 -135.834 -219 -174.501c-64 -27.333 -126.333 -41 -187 -41c-171.333 0 -304.333 69 -399 207c-46 66.667 -73.333 142 -82 226l192 41c0 -61.333 15.667 -115.666 47 -162.999c57.333 -86.667 141.333 -130 252 -130c74 0 137.833 24.333 191.5 73
s83.5 109.667 89.5 183l4 51c6 76 -21.333 137.667 -82 185c-48 37.333 -120 76.666 -216 117.999c-113.333 48.667 -188 83.667 -224 105c-124.667 74 -187 183.667 -187 329c0 98 40.333 185.333 121 262c88 83.333 200 125 336 125c173.333 0 305 -78.333 395 -235z" />
    <glyph glyph-name="T" unicode="T" horiz-adv-x="932" 
d="M373 1368h-369v176h928v-176h-369v-1368h-190v1368z" />
    <glyph glyph-name="U" unicode="U" horiz-adv-x="1372" 
d="M1061 1544h191v-981c0 -173.333 -51 -315.333 -153 -426c-104.667 -113.333 -243 -170 -415 -170c-113.333 0 -213.333 26.333 -300 79c-90 54.667 -157.667 132.334 -203 233.001c-40 89.333 -60 180.666 -60 273.999v991h191v-944c0 -132 28 -237.667 84 -317
c64.667 -90 160.667 -135 288 -135c251.333 0 377 156.333 377 469v927z" />
    <glyph glyph-name="V" unicode="V" horiz-adv-x="1313" 
d="M-17 1544h214l459 -1140l460 1140h211l-671 -1624z" />
    <glyph glyph-name="W" unicode="W" horiz-adv-x="2104" 
d="M1053 1579l440 -1138l430 1103h209l-639 -1604l-440 1131l-436 -1135l-642 1608h210l432 -1103z" />
    <glyph glyph-name="X" unicode="X" horiz-adv-x="1176" 
d="M484 811l-424 733h221l315 -561l336 561h221l-448 -735l471 -809h-219l-361 637l-381 -637h-215z" />
    <glyph glyph-name="Y" unicode="Y" horiz-adv-x="1172" 
d="M492 672l-505 872h222l379 -659l381 659h219l-504 -872v-672h-192v672z" />
    <glyph glyph-name="Z" unicode="Z" horiz-adv-x="1133" 
d="M801 1368h-672v176h987l-784 -1368h784v-176h-1095z" />
    <glyph glyph-name="bracketleft" unicode="[" horiz-adv-x="637" 
d="M125 1661h391v-176h-204v-1708h204v-173h-391v2057z" />
    <glyph glyph-name="backslash" unicode="\" horiz-adv-x="1129" 
d="M64 1780h172l829 -1780h-172z" />
    <glyph glyph-name="bracketright" unicode="]" horiz-adv-x="637" 
d="M516 -396h-391v173h199v1712h-199v172h391v-2057z" />
    <glyph glyph-name="asciicircum" unicode="^" horiz-adv-x="1184" 
d="M475 1544h234l407 -911h-192l-332 744l-332 -744h-192z" />
    <glyph glyph-name="underscore" unicode="_" horiz-adv-x="1024" 
d="M0 -232h1024v-153h-1024v153z" />
    <glyph glyph-name="grave" unicode="`" horiz-adv-x="735" 
d="M156 1415l168 88l256 -339l-88 -56z" />
    <glyph glyph-name="a" unicode="a" horiz-adv-x="1141" 
d="M844 961l183.999 -0.00195312v-961h-184v156c-89.333 -126 -200 -189 -332 -189c-70 0 -132.333 13 -187 39c-90 42.667 -159 108.334 -207 197.001c-44.667 82.667 -67 176.334 -67 281.001c0 208.667 78.667 356.667 236 444c70.667 39.333 145.667 59 225 59
c34.667 0 72.667 -6.66699 114 -20c94.667 -30.667 167.334 -88.667 218.001 -174v168zM851.999 487.998c0 93.333 -27.334 172.001 -82.001 236.001c-58 66.667 -133 100 -225 100c-112 0 -199.333 -52 -262 -156c-31.333 -52 -47 -113.333 -47 -184
c0 -142.667 51.333 -246.334 154 -311.001c46.667 -29.333 94.334 -44 143.001 -44c100 0 179 35.667 237 107c54.667 66 82 150 82 252z" />
    <glyph glyph-name="b" unicode="b" horiz-adv-x="1141" 
d="M113 0v1780h184v-987c84.667 129.333 195.334 194 332.001 194c135.333 0 246.666 -49 333.999 -147c83.333 -94 125 -208.667 125 -344c0 -90.667 -14.333 -171 -43 -241c-52 -126.667 -136.667 -212.667 -254 -258c-52 -20 -101.333 -30 -148 -30
c-80.667 0 -147 15.333 -199 46c-44 26 -93 73.667 -147 143v-156h-184zM903 488c0 126.667 -46.999 221.667 -140.999 285c-50.667 34 -107.334 51 -170.001 51c-113.333 0 -199.666 -53 -258.999 -159c-29.333 -52 -44 -112.333 -44 -181c0 -97.333 26.333 -179 79 -245
c56.667 -72 132.667 -108 228 -108c99.333 0 176.666 35.667 231.999 107c50 64.667 75 148 75 250z" />
    <glyph glyph-name="c" unicode="c" horiz-adv-x="903" 
d="M832 264l0.00195312 -234.998c-77.333 -38.667 -164 -58 -260 -58c-92.667 0 -178.334 20.667 -257.001 62c-80.667 42.667 -144.834 102.5 -192.501 179.5s-71.5 162.5 -71.5 256.5s23 180.5 69 259.5s110 141.5 192 187.5c80 44.667 166.667 67 260 67
c99.333 0 186 -19.667 260 -59v-240c-73.333 87.333 -167.666 131 -282.999 131c-84 0 -157.167 -33.333 -219.5 -100s-93.5 -142.334 -93.5 -227.001c0 -130 48.667 -228.333 146 -295c51.333 -35.333 109 -53 173 -53c60 0 111 10 153 30
c37.333 17.333 78.666 48.666 123.999 93.999z" />
    <glyph glyph-name="d" unicode="d" horiz-adv-x="1141" 
d="M844 1780h184v-1780h-184v156c-83.333 -126 -192.666 -189 -327.999 -189c-150.667 0 -268.334 56.333 -353.001 169c-74.667 99.333 -112 211 -112 335c0 96.667 18.667 184 56 262c41.333 86.667 101 152 179 196c68.667 38.667 142.667 58 222 58
c66 0 131 -18 195 -54s111 -82.667 141 -140v987zM852 475c0 143.333 -49.668 244.999 -149.001 304.999c-48.667 29.333 -104 44 -166 44c-127.333 0 -216.666 -62.333 -267.999 -187c-22 -53.333 -33 -108.666 -33 -165.999c0 -118 41 -212 123 -282
c45.333 -38.667 103.333 -58 174 -58c137.333 0 232.333 59.667 285 179c22.667 51.333 34 106.333 34 165z" />
    <glyph glyph-name="e" unicode="e" horiz-adv-x="1000" 
d="M811 320l158.001 -92.001c-105.333 -174 -256.333 -261 -453 -261c-140 0 -253 50.667 -339 152c-84 98.667 -126 231 -126 397c0 58.667 12.667 120.334 38 185.001c46.667 119.333 125 202.333 235 249c58 24.667 122 37 192 37
c201.333 0 336.666 -84.667 405.999 -254c32.667 -79.333 47.667 -155 45 -227l-2 -57h-725c0 -90.667 26.333 -166 79 -226c56 -62.667 128.667 -94 218 -94c118 0 209.333 63.667 274 191zM785.001 587.999c-10 70.667 -37 127.667 -81 171c-46.667 46 -105 69 -175 69
c-74.667 0 -137 -21.5 -187 -64.5s-81.333 -101.5 -94 -175.5h537z" />
    <glyph glyph-name="f" unicode="f" horiz-adv-x="563" 
d="M164 789h-84v172h84v475c0 246 101.667 369 305 369c50 0 95 -8.33301 135 -25v-188c-47.333 27.333 -90.333 41 -129 41c-84.667 0 -127 -77.333 -127 -232v-440h256v-172h-256v-789h-184v789z" />
    <glyph glyph-name="g" unicode="g" horiz-adv-x="1137" 
d="M840 789v172h184v-961c0 -281.333 -81.333 -452 -244 -512c-66.667 -24.667 -139 -37 -217 -37c-191.333 0 -327.333 69 -408 207c-38.667 66 -58 141 -58 225h184c0 -178.667 99.667 -268 299 -268c173.333 0 260 105.667 260 317v224l-41 -62
c-34 -51.333 -83.333 -87.333 -148 -108c-39.333 -12.667 -89.666 -19 -150.999 -19c-182.667 0 -313.334 85 -392.001 255c-38 82 -57 174.667 -57 278c0 121.333 38.333 230.333 115 327c84.667 106.667 194.667 160 330 160c148 0 262.667 -66 344 -198zM852 488
c0 143.333 -55.3311 243.333 -165.998 300c-46.667 24 -92.334 36 -137.001 36c-128.667 0 -220.334 -56.333 -275.001 -169c-25.333 -52 -38 -106.333 -38 -163c0 -79.333 16.667 -149.333 50 -210c37.333 -68 91 -113.667 161 -137c28 -9.33301 58 -14 90 -14
c127.333 0 219 56 275 168c26.667 53.333 40 116.333 40 189z" />
    <glyph glyph-name="h" unicode="h" horiz-adv-x="1071" 
d="M129 1780h183v-948h4c61.333 103.333 159 155 293 155c223.333 0 335 -129 335 -387v-600h-184v600c0 80 -17.833 137.333 -53.5 172s-93.5 52 -173.5 52c-147.333 0 -221 -99.667 -221 -299v-525h-183v1780z" />
    <glyph glyph-name="i" unicode="i" horiz-adv-x="520" 
d="M260 1528c36 0 66.168 -12.832 90.501 -38.499s36.5 -56.5 36.5 -92.5c0 -35.333 -13 -65 -39 -89s-56.667 -36 -92 -36c-36.667 0 -66.667 12.833 -90 38.5s-35 57.167 -35 94.5c0 33.333 13.167 62.166 39.5 86.499s56.166 36.5 89.499 36.5zM168.001 961.001h185v-961
h-185v961z" />
    <glyph glyph-name="j" unicode="j" horiz-adv-x="520" 
d="M260 1528c38 0 68.665 -12.832 91.998 -38.499s35 -57.834 35 -96.501c0 -33.333 -12.833 -61.833 -38.5 -85.5s-55.167 -35.5 -88.5 -35.5c-37.333 0 -68.166 12.833 -92.499 38.5s-36.5 57.167 -36.5 94.5c0 32 13.333 60.5 40 85.5s56.334 37.5 89.001 37.5z
M167.998 961.001h185v-1510h-185v1510z" />
    <glyph glyph-name="k" unicode="k" horiz-adv-x="948" 
d="M324 596l360 365h244l-408 -402l453 -559h-242l-344 436l-63 -63v-373h-184v1780h184v-1184z" />
    <glyph glyph-name="l" unicode="l" horiz-adv-x="457" 
d="M135 1780h185v-1780h-185v1780z" />
    <glyph glyph-name="m" unicode="m" horiz-adv-x="1573" 
d="M303 961v-121.001h4c23.333 45.333 69.666 85.333 138.999 120c36 18 75 27 117 27c121.333 0 213.666 -57.333 276.999 -172c66.667 114.667 164.334 172 293.001 172c212.667 0 319 -133 319 -399v-588h-184v549c0 84.667 -10 147.334 -30 188.001
c-28.667 58 -80 87 -154 87c-135.333 0 -203 -101.333 -203 -304v-520h-184v512c0 92 -10 161.333 -30 208c-29.333 69.333 -83.666 104 -162.999 104c-134 0 -201 -106.667 -201 -320v-504h-182v961h182z" />
    <glyph glyph-name="n" unicode="n" horiz-adv-x="1071" 
d="M129 961h183v-137c70.667 108.667 169.667 163 297 163c223.333 0 335 -137 335 -411v-576h-184v580c0 82 -14.333 141.667 -43 179c-32.667 43.333 -88.667 65 -168 65c-158 0 -237 -99.667 -237 -299v-525h-183v961z" />
    <glyph glyph-name="o" unicode="o" horiz-adv-x="1104" 
d="M553 811c-125.333 0 -220.333 -55.667 -285 -167c-30 -52 -45 -108.333 -45 -169c0 -126.667 55 -222 165 -286c51.333 -30 106.333 -45 165 -45c90 0 167.167 32.5 231.5 97.5s96.5 142.833 96.5 233.5c0 128 -54.667 225 -164 291c-49.333 30 -104 45 -164 45zM553 987
c92 0 177.17 -22.334 255.503 -67.001s140.666 -106.667 186.999 -186s69.5 -165.666 69.5 -258.999c0 -90.667 -22.833 -175 -68.5 -253s-107.834 -140 -186.501 -186s-164.334 -69 -257.001 -69c-90.667 0 -175.667 22.833 -255 68.5s-142 107.667 -188 186
s-69 162.833 -69 253.5c0 92.667 22.667 178.167 68 256.5s108.333 140.833 189 187.5c78.667 45.333 163.667 68 255 68z" />
    <glyph glyph-name="p" unicode="p" horiz-adv-x="1141" 
d="M297 961v-160h6c35.333 66 97.666 118 186.999 156c47.333 20 95 30 143 30c176 0 306 -79.333 390 -238c40.667 -76.667 61 -165 61 -265c0 -194 -68.667 -341.667 -206 -443c-67.333 -49.333 -145.666 -74 -234.999 -74c-146.667 0 -262 63 -346 189v-705h-184v1510
h184zM903 479c0 98.667 -27.333 180 -82 244c-58 67.333 -135.667 101 -233 101c-111.333 0 -196.333 -52 -255 -156c-29.333 -52 -44 -113.333 -44 -184c0 -98.667 26 -181 78 -247c56 -72 132.333 -108 229 -108l8 2c60.667 0 114 16.667 160 50
c92.667 66.667 139 166 139 298z" />
    <glyph glyph-name="q" unicode="q" horiz-adv-x="1141" 
d="M844 961l183.999 -0.000976562v-1510h-184v705c-34 -56 -81 -101.5 -141 -136.5s-122.333 -52.5 -187 -52.5c-138 0 -251 50.667 -339 152c-84 97.333 -126 216 -126 356c0 105.333 26.667 203.333 80 294c56.667 96.667 132.334 162.334 227.001 197.001
c38 14 78.333 21 121 21c163.333 0 285 -64.667 365 -194v168zM851.999 474.999c0 152 -56 255.999 -168 311.999c-49.333 24.667 -101 37 -155 37c-83.333 0 -154 -36.667 -212 -110c-54 -68 -81 -144.667 -81 -230c0 -99.333 26 -181.666 78 -246.999
c56.667 -70.667 133.667 -106 231 -106c130.667 0 221.667 58.667 273 176c22.667 52 34 108 34 168z" />
    <glyph glyph-name="r" unicode="r" horiz-adv-x="721" 
d="M324 961v-164c56.667 126.667 144.667 190 264 190c61.333 0 113.333 -14.333 156 -43l-84 -172c-30.667 24.667 -71.667 37 -123 37c-142 0 -213 -107 -213 -321v-488h-184v961h184z" />
    <glyph glyph-name="s" unicode="s" horiz-adv-x="789" 
d="M512 740c-28 56 -69.666 84 -124.999 84c-28.667 0 -52.167 -9.33301 -70.5 -28s-27.5 -42.334 -27.5 -71.001c0 -38 28.667 -71 86 -99l161 -79c132.667 -65.333 199 -155.333 199 -270c0 -112 -52.333 -200.333 -157 -265c-48.667 -30 -101.334 -45 -158.001 -45
c-174.667 0 -290.667 71 -348 213l160 76c36 -84.667 93.333 -127 172 -127c34 0 64.833 10.833 92.5 32.5s45.167 49.167 52.5 82.5c0 49.333 -24.667 92 -74 128c-20.667 15.333 -44.667 30 -72 44l-71 37c-143.333 74.667 -215 161.334 -215 260.001
c0 41.333 12 84.333 36 129c52 96.667 134.333 145 247 145c114 0 202 -56 264 -168z" />
    <glyph glyph-name="t" unicode="t" horiz-adv-x="492" 
d="M152 961v366h184v-366h184v-172h-184v-789h-184v789h-101v172h101z" />
    <glyph glyph-name="u" unicode="u" horiz-adv-x="1049" 
d="M748 961l184 -0.000976562v-553c0 -178 -57 -308 -171 -390c-60 -43.333 -136 -65 -228 -65c-161.333 0 -280.333 69.667 -357 209c-36.667 66.667 -55 143 -55 229v570h182v-545c0 -77.333 18.667 -142.666 56 -195.999c42 -60.667 100 -91 174 -91
c143.333 0 215 95.667 215 287v545z" />
    <glyph glyph-name="v" unicode="v" horiz-adv-x="912" 
d="M731 961h209l-483 -994l-486 994h209l277 -600z" />
    <glyph glyph-name="w" unicode="w" horiz-adv-x="1473" 
d="M-33 961h209l281 -613l278 664l285 -664l277 613h211l-488 -994l-285 642l-278 -642z" />
    <glyph glyph-name="x" unicode="x" horiz-adv-x="1000" 
d="M400 520l-344 441h217l227 -314l248 314h225l-352 -441l411 -520h-217l-315 387l-303 -387h-226z" />
    <glyph glyph-name="y" unicode="y" horiz-adv-x="991" 
d="M412 164l-441 797h218l323 -613l299 613h209l-776 -1510h-207z" />
    <glyph glyph-name="z" unicode="z" horiz-adv-x="1012" 
d="M652 789h-535v172h895l-647 -789h618v-172h-979z" />
    <glyph glyph-name="braceleft" unicode="{" horiz-adv-x="684" 
d="M101 705c52.667 16.667 92.3311 57.999 118.998 123.999c21.333 52.667 32 111 32 175v405c0 78 31.667 148.667 95 212c26.667 26.667 52.334 40 77.001 40h160v-172h-84c-39.333 0 -59 -32 -59 -96v-428c0 -140 -52 -252 -156 -336c104 -68.667 156 -184.667 156 -348
v-406c0 -35.333 4.33301 -59.666 13 -72.999c10.667 -16.667 32.667 -25 66 -25h64v-173h-156c-57.333 0 -106.666 45.333 -147.999 136c-18.667 40.667 -28 80.667 -28 120v396c0 157.333 -50.333 257 -151 299v150z" />
    <glyph glyph-name="bar" unicode="|" horiz-adv-x="1168" 
d="M496 1780h176v-1780h-176v1780z" />
    <glyph glyph-name="braceright" unicode="}" horiz-adv-x="684" 
d="M584 555c-52 -15.333 -91.667 -56.334 -119 -123.001c-22 -54 -33 -112.667 -33 -176v-391c0 -92.667 -29.333 -166.334 -88 -221.001c-28.667 -26.667 -62 -40 -100 -40h-143v173h84c39.333 0 59 30.667 59 92v428c0 140.667 52 252.667 156 336
c-104 73.333 -156 189.333 -156 348v408c0 70 -26.667 103.333 -80 100l-63 -4v176h143c75.333 0 130.333 -45 165 -135c15.333 -39.333 23 -79.666 23 -120.999v-401c0 -153.333 50.667 -251.666 152 -294.999v-154z" />
    <glyph glyph-name="asciitilde" unicode="~" horiz-adv-x="1184" 
d="M1121 580c-91.333 -165.333 -200.666 -248.001 -327.999 -248.001c-32.667 0 -68.334 10 -107.001 30c-70 46.667 -149.333 96.334 -238 149.001c-29.333 17.333 -58.333 26 -87 26c-49.333 -14 -104 -68.667 -164 -164l-129 96l43 57c32 42 57.667 73 77 93
c64 65.333 140 98 228 98c71.333 -10 151 -50 239 -120c74.667 -59.333 128 -89 160 -89c50 10 105.333 68.667 166 176z" />
    <glyph glyph-name="nonbreakingspace" unicode="&#xa0;" horiz-adv-x="250" 
 />
    <glyph glyph-name="exclamdown" unicode="&#xa1;" horiz-adv-x="656" 
d="M324 801c-72.667 0 -111 37 -115 111c-2 32.667 8.5 63 31.5 91s50.833 42 83.5 42c36 0 65.167 -11.833 87.5 -35.5s33.5 -53.5 33.5 -89.5c0 -35.333 -11.333 -64 -34 -86s-51.667 -33 -87 -33zM424 -529h-184v1189h184v-1189z" />
    <glyph glyph-name="cent" unicode="&#xa2;" horiz-adv-x="1184" 
d="M633 1284l-0.00195312 159.999h98v-156c90 0 173.333 -21 250 -63v-242c-65.333 88.667 -148.666 133 -249.999 133v-667c88.667 0 172 41 250 123v-240c-75.333 -39.333 -160 -59 -254 -59v-172h-94v180c-170.667 22.667 -294.667 111.667 -372 267
c-37.333 75.333 -56 157 -56 245c0 67.333 18 138.333 54 213c76.667 158.667 201.334 251.334 374.001 278.001zM632.998 1104c-94 -11.333 -165.334 -72.333 -214.001 -183c-22.667 -51.333 -34 -105 -34 -161c0 -42 12 -87.667 36 -137
c48.667 -100 119.334 -156.667 212.001 -170v651z" />
    <glyph glyph-name="sterling" unicode="&#xa3;" horiz-adv-x="1184" 
d="M957 1028l2.00098 43c2.66699 56 -10 111.333 -38 166c-38 75.333 -97.333 126 -178 152c-24.667 8 -51 12 -79 12c-112.667 0 -207.334 -53.333 -284.001 -160c-34.667 -48.667 -52 -98.334 -52 -149.001c0 -73.333 29 -158.666 87 -255.999l60 -101h301v-118h-256
c19.333 -59.333 29 -118 29 -176c0 -18 -2.66699 -51.667 -8 -101c-1.33301 -5.33301 -4 -18 -8 -38l-8 -38c22.667 -6.66699 67 -22.667 133 -48l125 -48c28 -10.667 56.667 -16 86 -16c50.667 0 96.667 34 138 102l30 49l155 -94c-31.333 -70.667 -74 -127.667 -128 -171
c-60 -47.333 -126.333 -71 -199 -71c-60 0 -142.333 21 -247 63c-110.667 44.667 -195 67 -253 67c-87.333 0 -147.333 -43.333 -180 -130l-160 80c65.333 116.667 135.333 189 210 217c30 11.333 63.667 17 101 17c19.333 60 29 116 29 168c0 66.667 -15 122.667 -45 168
h-264v118h204c-84 151.333 -122.667 277 -116 377l4 60c4.66699 66 34.334 133.333 89.001 202c50 62.667 107.333 110.667 172 144c75.333 39.333 154.666 59 237.999 59c114 0 221.667 -34.667 323 -104c114 -78 171 -202.333 171 -373z" />
    <glyph glyph-name="currency" unicode="&#xa4;" horiz-adv-x="1184" 
d="M948 643c0 54 -15.998 106.667 -47.998 158c-30.667 49.333 -70 87.666 -118 114.999c-57.333 32.667 -119.333 49 -186 49c-148.667 0 -255.334 -59.333 -320.001 -178c-29.333 -54 -44 -110.667 -44 -170c0 -121.333 57 -219.666 171 -294.999
c54 -35.333 114.333 -53 181 -53c109.333 0 197.666 35.333 264.999 106c66 68.667 99 158 99 268zM156.002 908l-84.002 88.001l125 125l92 -93c82.667 67.333 183.667 101 303 101c114 0 215.667 -33.667 305 -101l90 93l125 -125l-84 -88c58.667 -85.333 88 -185 88 -299
c0 -100 -29.333 -195 -88 -285l84 -92l-125 -119l-90 88c-85.333 -64 -189.666 -96 -312.999 -96c-109.333 0 -207.666 32 -294.999 96l-92 -88l-125 119l84 92c-58.667 99.333 -88 192.666 -88 279.999c0 106 29.333 207.333 88 304z" />
    <glyph glyph-name="yen" unicode="&#xa5;" horiz-adv-x="1184" 
d="M-8 1544h221l379 -659l381 659h219l-323 -561h303v-118h-371l-113 -193v-20h484v-119h-484v-533h-192v533h-483v119h483v20l-111 193h-372v118h303z" />
    <glyph glyph-name="brokenbar" unicode="&#xa6;" horiz-adv-x="692" 
d="M484 1772h176v-1772h-176v1772z" />
    <glyph glyph-name="section" unicode="&#xa7;" horiz-adv-x="1184" 
d="M809 1436c0 56 -23.668 100.334 -71.001 133.001c-41.333 28.667 -91.333 43 -150 43c-126 0 -197.667 -67 -215 -201c0 -59.333 30.333 -111 91 -155c38.667 -28 73.334 -49.333 104.001 -64l154 -74l163 -81c146 -72.667 219 -171.667 219 -297
c0 -57.333 -19 -117.666 -57 -180.999c-34.667 -58.667 -77 -106.334 -127 -143.001c72 -72 108 -157.333 108 -256c0 -155.333 -78.667 -268.333 -236 -339c-72.667 -32.667 -149 -49 -229 -49c-138.667 0 -246.667 44 -324 132c-73.333 84 -110 196 -110 336h183
c0 -112.667 41 -197.667 123 -255c42.667 -30 91 -45 145 -45c68.667 0 128.667 20.667 180 62c56 44 84 99.333 84 166c0 40 -13 79 -39 117c-38.667 41.333 -105 84 -199 128l-266 124c-52.667 24.667 -102 54 -148 88c-74.667 55.333 -112 132.333 -112 231
c0 129.333 67 240 201 332c-64 65.333 -96 139.666 -96 222.999c0 65.333 19 127.333 57 186c36.667 56 85.167 100.5 145.5 133.5s124.5 49.5 192.5 49.5c160 0 277.667 -57.333 353 -172c36 -54.667 54 -112 54 -172h-178zM796.999 508.001
c82 57.333 122.999 124.334 122.999 201.001c0 50 -15.667 91 -47 123c-20.667 21.333 -58.667 46 -114 74l-372 190c-82 -54 -123 -127 -123 -219l4 -26c0.666992 -4.66699 2.33398 -12.334 5.00098 -23.001c13.333 -41.333 55.333 -82.666 126 -123.999
c24.667 -14 80 -40.667 166 -80c94 -42.667 171.333 -81.334 232 -116.001z" />
    <glyph glyph-name="dieresis" unicode="&#xa8;" horiz-adv-x="965" 
d="M264 1424c34 0 63.001 -11.999 87.001 -35.999s36 -53 36 -87c0 -34.667 -11.833 -64.167 -35.5 -88.5s-52.834 -36.5 -87.501 -36.5s-64 12.167 -88 36.5s-36 53.833 -36 88.5c0 33.333 12.333 62.166 37 86.499s53.667 36.5 87 36.5zM697.001 1424
c34 0 62.833 -12.001 86.5 -36.001s35.5 -53 35.5 -87c0 -34.667 -11.667 -64.167 -35 -88.5s-52.333 -36.5 -87 -36.5s-64.167 12.167 -88.5 36.5s-36.5 53.833 -36.5 88.5c0 32.667 12.667 61.334 38 86.001s54.333 37 87 37z" />
    <glyph glyph-name="copyright" unicode="&#xa9;" horiz-adv-x="1641" 
d="M1104 940c-28.667 114.667 -116.667 172.002 -264 172.002c-98 0 -174 -34.333 -228 -103c-50 -62.667 -75 -144.334 -75 -245.001c0 -126.667 50 -218.334 150 -275.001c46.667 -26.667 103 -40 169 -40c136 0 218.667 60 248 180h125c-16 -128 -83 -219.667 -201 -275
c-54 -25.333 -111.333 -38 -172 -38c-169.333 0 -296.333 68 -381 204c-47.333 76 -71 156 -71 240c0 211.333 77.667 355.333 233 432c68.667 34 141.667 51 219 51c134 0 236 -48 306 -144c34 -46.667 56.333 -99.667 67 -159h-125zM819 1577
c224.667 0 415.665 -78 572.998 -234s236 -346.333 236 -571c0 -144.667 -35.667 -278.5 -107 -401.5s-169.666 -221 -294.999 -294s-261 -109.5 -407 -109.5c-144 0 -277.667 35.5 -401 106.5s-221.666 168.667 -294.999 293s-110 259.5 -110 405.5
c0 144.667 35.667 278.667 107 402s169.5 221.333 294.5 294s259.833 109 404.5 109zM818.998 1448c-120.667 0 -232.833 -29.832 -336.5 -89.499s-186 -141.667 -247 -246s-91.5 -217.833 -91.5 -340.5c0 -120.667 30 -232.667 90 -336s142.167 -185 246.5 -245
s217.166 -90 338.499 -90c122 0 234.333 29.167 337 87.5s184.834 139.666 246.501 243.999s92.5 217.5 92.5 339.5c0 189.333 -65.333 349.333 -196 480s-290.667 196 -480 196z" />
    <glyph glyph-name="ordfeminine" unicode="&#xaa;" horiz-adv-x="684" 
d="M25 852h635v-96h-635v96zM545 1268c0 62.667 -18.5 113.834 -55.5 153.501s-86.833 59.5 -149.5 59.5c-54.667 0 -101 -19.833 -139 -59.5s-57 -86.834 -57 -141.501c0 -60.667 17.333 -111 52 -151c36.667 -42.667 84.667 -64 144 -64c61.333 0 110.833 18.667 148.5 56
s56.5 86.333 56.5 147zM660 1561l-0.000976562 -578h-119v97c-54.667 -76.667 -125.667 -115 -213 -115c-90 0 -163 29.333 -219 88s-84 133 -84 223c0 115.333 46.333 202.333 139 261c44.667 28 95.334 42 152.001 42c92 0 167 -38 225 -114v96h119z" />
    <glyph glyph-name="guillemotleft" unicode="&#xab;" horiz-adv-x="1071" 
d="M828 1149l116 -84l-307 -409l307 -392l-116 -84l-371 476zM436 1149l113 -84l-305 -409l305 -392l-113 -84l-376 472z" />
    <glyph glyph-name="logicalnot" unicode="&#xac;" horiz-adv-x="1184" 
d="M940 613h-872v176h1048v-553h-176v377z" />
    <glyph glyph-name="minus" unicode="&#xad;" 
 />
    <glyph glyph-name="minus" unicode="&#x2212;" 
 />
    <glyph glyph-name="registered" unicode="&#xae;" horiz-adv-x="1641" 
d="M508 1221l391 0.000976562c200.667 0 301 -79.333 301 -238c0 -74.667 -21.333 -135.334 -64 -182.001s-101 -70 -175 -70l227 -419h-147l-232 419h-168v-419h-133v909zM893 1088h-252v-223h271c106 0 159 34.667 159 104c0 79.333 -59.333 119 -178 119zM819 1448
c-120.667 0 -232.833 -29.832 -336.5 -89.499s-186 -141.667 -247 -246s-91.5 -217.833 -91.5 -340.5c0 -120.667 30 -232.667 90 -336s142.167 -185 246.5 -245s217.166 -90 338.499 -90c122 0 234.333 29.167 337 87.5s184.834 139.666 246.501 243.999
s92.5 217.5 92.5 339.5c0 189.333 -65.333 349.333 -196 480s-290.667 196 -480 196zM819.001 1577c224.667 0 415.665 -78 572.998 -234s236 -346.333 236 -571c0 -144.667 -35.667 -278.5 -107 -401.5s-169.666 -221 -294.999 -294s-261 -109.5 -407 -109.5
c-144 0 -277.667 35.5 -401 106.5s-221.666 168.667 -294.999 293s-110 259.5 -110 405.5c0 144.667 35.667 278.667 107 402s169.5 221.333 294.5 294s259.833 109 404.5 109z" />
    <glyph glyph-name="c275" unicode="&#xaf;" 
 />
    <glyph glyph-name="degree" unicode="&#xb0;" 
 />
    <glyph glyph-name="plusminus" unicode="&#xb1;" horiz-adv-x="1184" 
d="M68 176h1048v-176h-1048v176zM504 1153h176v-356h436v-176h-436v-352h-176v352h-436v176h436v356z" />
    <glyph glyph-name="twosuperior" unicode="&#xb2;" horiz-adv-x="709" 
d="M33 621l446.001 508c44 50 66 99 66 147c0 45.333 -17.833 85.333 -53.5 120s-76.5 52 -122.5 52c-83.333 0 -141.333 -32 -174 -96c-10 -19.333 -15 -39 -15 -59h-137c6.66699 52.667 22.667 99 48 139c57.333 91.333 147.333 137 270 137
c83.333 0 156.666 -27 219.999 -81c66 -56.667 99 -126 99 -208c0 -71.333 -23.667 -134 -71 -188l-312 -357h383v-114h-647z" />
    <glyph glyph-name="threesuperior" unicode="&#xb3;" horiz-adv-x="709" 
d="M332 1180c93.333 0 154.667 25.999 184 77.999c8.66699 15.333 13 33.666 13 54.999c0 44.667 -18.667 80.334 -56 107.001c-33.333 24 -73.333 36 -120 36c-98.667 0 -148 -37.333 -148 -112h-141c30 156.667 131.667 235 305 235c79.333 0 146 -21.667 200 -65
c58 -47.333 87 -109.666 87 -186.999c0 -90 -43.667 -158.667 -131 -206c102 -47.333 151 -132.666 147 -255.999c-2.66699 -79.333 -38.667 -142.333 -108 -189c-61.333 -42 -133.333 -63 -216 -63c-122 0 -210.667 41.667 -266 125c-27.333 41.333 -41 82 -41 122h127
c12 -88.667 75 -133 189 -133c48.667 0 91.5 15.667 128.5 47s55.5 71 55.5 119c0 65.333 -31.333 114.666 -94 147.999c-30 16 -65.667 24 -107 24h-8v115z" />
    <glyph glyph-name="acute" unicode="&#xb4;" horiz-adv-x="735" 
d="M412 1503l172 -88l-340 -307l-88 56z" />
    <glyph glyph-name="mu" unicode="&#xb5;" horiz-adv-x="1049" 
d="M748 961h184v-553c0 -132.667 -31.333 -237.667 -94 -315c-68 -84 -167 -126 -297 -126c-68 0 -147.333 29.667 -238 89v-605h-182v1510h182v-545c0 -184 75.333 -276 226 -276c146 0 219 92 219 276v545z" />
    <glyph glyph-name="mu" unicode="&#x3bc;" horiz-adv-x="1049" 
d="M748 961h184v-553c0 -132.667 -31.333 -237.667 -94 -315c-68 -84 -167 -126 -297 -126c-68 0 -147.333 29.667 -238 89v-605h-182v1510h182v-545c0 -184 75.333 -276 226 -276c146 0 219 92 219 276v545z" />
    <glyph glyph-name="paragraph" unicode="&#xb6;" horiz-adv-x="1184" 
d="M504 580c-68.667 0 -131.667 14.667 -189 44c-154 78.667 -231 225.667 -231 441c0 126 46.333 239.333 139 340c27.333 30 57 55.333 89 76c64.667 42 128.667 63 192 63h600v-172h-127v-1684h-172v1684h-125v-1684h-176v892z" />
    <glyph glyph-name="periodcentered" unicode="&#xb7;" horiz-adv-x="1184" 
d="M592 1159c152 0 264.668 -63.334 338.001 -190.001c34 -58.667 51 -123 51 -193c0 -149.333 -64.667 -261.333 -194 -336c-61.333 -35.333 -126.333 -53 -195 -53c-146.667 0 -258 65 -334 195c-35.333 60.667 -53 125.334 -53 194.001c0 147.333 64.667 258 194 332
c59.333 34 123.666 51 192.999 51z" />
    <glyph glyph-name="periodcentered" unicode="&#x2219;" horiz-adv-x="1184" 
d="M592 1159c152 0 264.668 -63.334 338.001 -190.001c34 -58.667 51 -123 51 -193c0 -149.333 -64.667 -261.333 -194 -336c-61.333 -35.333 -126.333 -53 -195 -53c-146.667 0 -258 65 -334 195c-35.333 60.667 -53 125.334 -53 194.001c0 147.333 64.667 258 194 332
c59.333 34 123.666 51 192.999 51z" />
    <glyph glyph-name="cedilla" unicode="&#xb8;" horiz-adv-x="676" 
d="M357 -37l143 -60l-215 -276l-109 57z" />
    <glyph glyph-name="onesuperior" unicode="&#xb9;" horiz-adv-x="709" 
d="M307 1428h-176l74 116h236v-923h-134v807z" />
    <glyph glyph-name="ordmasculine" unicode="&#xba;" horiz-adv-x="664" 
d="M545 1272c0 56.667 -20.5 104.333 -61.5 143s-90.167 58 -147.5 58c-84 0 -146.333 -33.333 -187 -100c-18.667 -30.667 -28 -64.334 -28 -101.001c0 -57.333 20.833 -105.166 62.5 -143.499s91.167 -57.5 148.5 -57.5c83.333 0 145.333 35.333 186 106
c18 31.333 27 63 27 95zM0 1272c0 109.333 49.332 195.332 147.999 257.999c51.333 32.667 114 49 188 49c130.667 0 226.334 -52.667 287.001 -158c27.333 -47.333 41 -97 41 -149c0 -119.333 -56 -207.666 -168 -264.999c-54.667 -28 -117.667 -42 -189 -42
c-55.333 0 -110.333 17.667 -165 53c-94.667 61.333 -142 146 -142 254zM-0.000976562 851.998h664v-96h-664v96z" />
    <glyph glyph-name="guillemotright" unicode="&#xbb;" horiz-adv-x="1071" 
d="M248 168l-117 88l310 404l-310 393l117 88l373 -481zM641 168l-116 84l307 412l-307 389l116 84l375 -473z" />
    <glyph glyph-name="onequarter" unicode="&#xbc;" horiz-adv-x="1776" 
d="M260 1428h-172l68 116h235v-923h-131v807zM1465 600l-261 -348h261v348zM1596 969v-717h100v-117h-100v-135h-131v135h-496zM496 -33l-105 58l902 1552l108 -53z" />
    <glyph glyph-name="onehalf" unicode="&#xbd;" horiz-adv-x="1776" 
d="M260 1428h-172l68 116h235v-923h-131v807zM391 -33l-102 58l899 1552l105 -53zM1049 0l446 512.001c44 50.667 66 98.667 66 144s-18 85.333 -54 120s-76.667 52 -122 52c-49.333 0 -92 -13.333 -128 -40c-40.667 -29.333 -61 -68 -61 -116h-135
c11.333 111.333 62.333 190.666 153 237.999c48.667 25.333 103 38 163 38c118 0 209 -46 273 -138c30.667 -44 46 -92.667 46 -146c0 -74.667 -24 -139 -72 -193l-311 -350h383v-121h-647z" />
    <glyph glyph-name="threequarters" unicode="&#xbe;" horiz-adv-x="1776" 
d="M613 -33l-105 58l901 1552l107 -53zM1596 969v-717h100v-117h-100v-135h-131v135h-496zM1465 600l-261 -348h261v348zM381 1180c88 0 147.333 26.333 178 79c8.66699 14.667 13 32.667 13 54c0 44 -18 79.667 -54 107c-32.667 24 -72 36 -118 36
c-101.333 0 -152 -37.333 -152 -112h-135c24 156.667 123.667 235 299 235c80 0 147 -21.667 201 -65c58.667 -46.667 88 -109 88 -187c0 -90.667 -44.333 -159.334 -133 -206.001c105.333 -44.667 155 -130 149 -256c-4 -80 -40.333 -143.333 -109 -190
c-60.667 -41.333 -133 -62 -217 -62c-120.667 0 -209 41.667 -265 125c-28 42 -42 82.667 -42 122h131c8 -88.667 69.667 -133 185 -133c48.667 0 91.5 15.667 128.5 47s55.5 71 55.5 119v4c0 66.667 -31.667 115.334 -95 146.001c-30.667 14.667 -66.667 22 -108 22v115z
" />
    <glyph glyph-name="questiondown" unicode="&#xbf;" horiz-adv-x="928" 
d="M457 805c-32.667 0 -60.333 11.667 -83 35s-34 51.333 -34 84c0 32 12.167 60.167 36.5 84.5s52.5 36.5 84.5 36.5c30.667 0 57.5 -11.833 80.5 -35.5s34.5 -50.834 34.5 -81.501c0 -33.333 -11.667 -62.166 -35 -86.499s-51.333 -36.5 -84 -36.5zM815.001 -131
c2.66699 -16.667 3.99902 -42.667 3.99902 -78c0 -129.333 -60 -227.666 -180 -294.999c-53.333 -30 -111.333 -45 -174 -45c-163.333 0 -276 70 -338 210c-26 58.667 -39 111.667 -39 159c0 108.667 39 194 117 256c45.333 36 116 68.333 212 97
c41.333 12.667 74.333 24.667 99 36c56 26.667 84 66.334 84 119.001c0 39.333 -13 74.333 -39 105s-58 46 -96 46c-45.333 0 -82.166 -15 -110.499 -45s-42.5 -68 -42.5 -114h-183c0 118.667 50.667 211.334 152 278.001c54.667 36 116 54 184 54
c122 0 214.667 -55 278 -165c30.667 -53.333 46 -113.333 46 -180c0 -126.667 -69.333 -215.334 -208 -266.001l-112 -41c-122 -44.667 -187.333 -99.334 -196 -164.001c0 -90 29 -152.667 87 -188c27.333 -16.667 58.333 -25 93 -25c48.667 0 91.5 17.333 128.5 52
s55.5 76 55.5 124c0 21.333 -4 44.666 -12 69.999h190z" />
    <glyph glyph-name="Agrave" unicode="&#xc0;" horiz-adv-x="2634" 
d="M2515 -24h-48l-1171 396v16zM2334 -24l-1038 396v16l1090 -412h-52zM2143 -24h-42l-805 396v16zM1870 -24h-32l-542 396v16zM2515 -24l-1219 -406v16l1171 390h48zM1573 -24h-21l-256 396v16zM1069 269h-99l33 11h47zM1177 280h409l38 -11h-440zM2334 -24h52l-1090 -406
v16zM1870 -24l-574 -406v16l542 390h32zM2143 -24l-847 -406v16l805 390h42zM1296 388v-16l-257 -396h-19zM2473 -30h-2363v17h2363v-17zM1106 232l-350 -256h-30l370 268zM1166 294l130 94v-16l-122 -88zM1573 -24l-277 -406v16l256 390h21zM1073 265l-581 -289h-40
l608 298zM1151 318l145 70v-16l-137 -65zM1981 -195h-1373l-27 17h1429zM1050 280l-793 -304h-50l832 315zM1140 333l156 55v-16l-145 -55zM1296 664v-17l-276 409h19zM1582 -328h-584l-16 11h629zM1138 333l158 55v-16l-145 -50zM1033 300l105 33zM1045 290l-921 -314h-48
l957 324zM1296 -430l-570 406h30l540 -390v-16zM1296 -430l-844 406h40l804 -390v-16zM1296 -430l-1089 406h50l1039 -390v-16zM1296 -430l-1220 406h48l1172 -390v-16zM1290 380h15v-800l-15 4v796zM2515 1056h-48l-1171 396v17zM2334 1056l-1038 396v17l1090 -413h-52z
M2143 1056h-42l-805 396v17zM1870 1056h-32l-542 396v17zM1468 705l-172 -58v17l163 54zM1564 753l903 303h48l-942 -315zM1573 1056h-21l-256 396v17zM1624 1346h-654l33 11h583zM1465 713l-169 -66v17l159 60zM1455 724l100 38zM1555 762l779 294h52l-819 -305zM1440 751
l-144 -104v17l136 98zM1508 818l330 238h32l-351 -252zM1455 724l-159 -77v17l148 73zM1536 781l565 275h42l-591 -288zM1296 1469v-17l-257 -396h-19zM2473 1044h-2363v21h2363v-21zM1296 1452l-540 -396h-30l570 413v-17zM1573 1056l-277 -409v17l256 392h21zM1296 1452
l-804 -396h-40l844 413v-17zM1981 882h-1373l-27 17h1429zM1296 1452l-1039 -396h-50l1089 413v-17zM1440 751h-442l-16 11h450zM1555 762h56l-29 -11h-15zM76 1056l1220 413v-17l-1172 -396h-48zM1296 647l-570 409h30l540 -392v-17zM1296 647l-844 409h40l804 -392v-17z
M1296 647l-1089 409h50l1039 -392v-17zM1296 647l-1220 409h48l1172 -392v-17zM1290 1459h15v-799h-15v799zM1039 -24l257 -390v-16l-276 406h19zM904 516c0 120.667 35.667 216.835 107 288.502s167.333 107.5 288 107.5c120 0 215.167 -35.833 285.5 -107.5
s105.5 -167.834 105.5 -288.501c0 -118.667 -35.5 -213.334 -106.5 -284.001s-165.833 -106 -284.5 -106s-214.167 35.5 -286.5 106.5s-108.5 165.5 -108.5 283.5zM1015 420.001h-21l12 -34l36 -64l18 -22l27 -24l34 -25l30 -15l26 -9l-18 17l-21 15l-29 36l-21 22l-38 73
l-5 23l-10 25l-10 -11zM1558 711.001l16 2l-48 61l-23 19l-22 15l-37 15l-16 11l23 -26l17 -17l13 -15l7 -16l15 -23l7 -21l12 -35l14 14zM1003 501.001c-3.33301 0 -7 -0.666992 -11 -2c-10 -8 -15 -16 -15 -24c0 -20 8 -30 24 -30c17.333 0 26 9 26 27
c0 19.333 -8 29 -24 29z" />
    <glyph glyph-name="Aacute" unicode="&#xc1;" horiz-adv-x="5749" 
d="M88 1434h1515v-364h-1515v364zM1983 1434h1514v-364h-1514v364zM3877 1434h1515v-364h-1515v364zM88 705v-1095h1515v367h-1134v728h-381zM1983 705v-1095h378v731h759v-731h377v1095h-1514zM3877 705v-364h1136v-364h-1136v-367h1515v1095h-1515z" />
    <glyph glyph-name="Acircumflex" unicode="&#xc2;" horiz-adv-x="2245" 
d="M102 1560l1036 -1982l1018 1982h-76v-47h10l-955 -1841l-962 1841h1907v47h-1978zM392 1368l117 -229h1242l117 229h-1476zM551 1059l120 -230h922l117 230h-1159zM711 756l121 -234h600l119 234h-840zM641 1283h-12c-17.333 0 -26 -9.66699 -26 -29
c0 -18 8.66699 -27 26 -27h12v-24h-16c-33.333 0 -50 17 -50 51c0 36.667 16.667 55 50 55h16v-26zM717 1283c-18.667 0 -28 -9.66699 -28 -29c0 -18 9.33301 -27 28 -27c16 0 24 9 24 27c0 19.333 -8 29 -24 29zM717 1309c32 0 48 -16.667 48 -50
c0 -37.333 -16 -56 -48 -56v0c-36 0 -54 18.667 -54 56c0 33.333 18 50 54 50zM810 1203h-18.999l6 81c1.33301 16.667 7.66602 25 18.999 25c12 0 18.667 -7.66699 20 -23l4 -49l10 54c2 12 8.66699 18 20 18c12 0 18 -7.66699 18 -23l10 -83h-24l-7 83l-13 -68
c-2 -10 -6.66699 -15 -14 -15c-5.33301 0 -8 3.66699 -8 11l-16 70zM944.001 1203h-24v65c0 27.333 12 41 36 41s36 -12.667 36 -38c0 -22.667 -12 -34 -36 -34h-4v24c10.667 0 16 3.33301 16 10c0 8.66699 -4.33301 13 -13 13c-7.33301 0 -11 -4.33301 -11 -13v-68z
M1040 1309v-72c0 -9.33301 3.66699 -14 11 -14c12 0 18 4.66699 18 14v72h21v-72c0 -22.667 -13 -34 -39 -34c-22.667 0 -34 11.333 -34 34v72h23zM1113 1309h63v-26h-16v-80h-30v80h-17v26zM1248 1283c-19.333 0 -29 -9.66699 -29 -29c0 -18 9.66699 -27 29 -27
c20 0 30 9 30 27c0 19.333 -10 29 -30 29zM1248 1309c34.667 0 52 -16.667 52 -50c0 -37.333 -17.333 -56 -52 -56v0c-36 0 -54 18.667 -54 56c0 33.333 18 50 54 50zM1377 1254c14.667 0 22 -5.66699 22 -17v-34h-26v34c0 4 -5.33301 6 -16 6v23c10 0 15 2.33301 15 7
c0 7.33301 -3.66699 11 -11 11c-6.66699 0 -10 -4.33301 -10 -13v-68h-23v65c0 27.333 11 41 33 41c24.667 0 37 -8.66699 37 -26v-4c0 -14 -7 -22.333 -21 -25zM1455 1309v-106h-26v106h26zM1505 1309v-72c0 -9.33301 5 -14 15 -14c6 0 9 4.66699 9 14v72h27v-72
c0 -22.667 -12 -34 -36 -34c-27.333 0 -41 11.333 -41 34v72h26zM1603 1203h-21.999l4 81c0.666992 16.667 8 25 22 25c9.33301 0 15.333 -7.66699 18 -23l8 -49h3l5 54c1.33301 12 8.66602 18 21.999 18c12.667 0 19.334 -7.66699 20.001 -23l5 -83h-23l-2 83l-16 -68
c-2.66699 -10 -6.33398 -15 -11.001 -15c-8.66699 0 -13 3.66699 -13 11l-14 70zM791.002 928h10.999c-3.33301 15.333 -5.66602 30.333 -6.99902 45zM761.001 893l23 102h22l25 -102h-22l-3 18h-22l-1 -18h-22zM882.001 911c16 0 24 11 24 33s-8 33 -24 33v0v-66z
M864.001 893l-0.000976562 102h16c30.667 0 46 -17 46 -51c0 -25.333 -9.33301 -41.333 -28 -48c-3.33301 -2 -9.66602 -3 -18.999 -3h-15zM982 893l-27 102h23l8 -44c2.66699 -14.667 4 -25.334 4 -32.001c0 6.66699 2 17.334 6 32.001l12 44h20l-25 -102h-21zM1076 928h14
l-3 45zM1051 893l23 102h18l28 -102h-25l-3 18h-18l-2 -18h-21zM1152 893v102h24l18 -53c0 -4.66699 2 -12.334 6 -23.001c-1.33301 15.333 -2 27.333 -2 36v40h20v-102h-20l-22 58c-0.666992 4.66699 -3 10.667 -7 18c4 -9.33301 6 -20.666 6 -33.999v-42h-23zM1309 896
c-2 -2 -5 -3 -9 -3c-30 0 -45 17 -45 51s14 51 42 51h12v-22c-2 2.66699 -5 4 -9 4c-14.667 0 -22 -11 -22 -33s7.33301 -33 22 -33c4.66699 0 7.66699 2 9 6v-21zM1355 893v102h38v-18h-21v-22h21v-16h-21v-22h21v-24h-38zM1457 911c14.667 0 22 11 22 33
s-7.33301 33 -22 33v0v-66zM1438 893v102h17c29.333 0 44 -17 44 -51s-16 -51 -48 -51h-13zM885 591v23.001c8 -5.33301 14.333 -8 19 -8c7.33301 0 11 4.66699 11 14l-14 14c-10.667 10.667 -16 19.667 -16 27c0 18 9.33301 27 28 27c4.66699 0 10 -1.33301 16 -4v-16
c-4.66699 1.33301 -8 2.66602 -10 3.99902c-8.66699 0 -13 -3.66699 -13 -11l14 -18c9.33301 -12 14 -19.667 14 -23c0 -24 -9.33301 -36 -28 -36c-6 0 -13 2.33301 -21 7zM968 586.001v46l-24 56h23l5 -18c2.66699 -3.33301 4.66699 -9.33301 6 -18c2 4 3.33301 10 4 18
l8 18h20l-24 -56v-46h-18zM1024 591.001v23.001c6 -5.33301 10.667 -8 14 -8c6 0 9 4.66699 9 14l-11 14c-9.33301 12 -14 21 -14 27c0 18 8 27 24 27c8 0 15.667 -1.33301 23 -4v-16c-7.33301 1.33301 -13.333 2.66602 -18 3.99902c-4.66699 0 -7 -3.66699 -7 -11l13 -18
c8.66699 -12 13 -19.667 13 -23c0 -24 -10 -36 -30 -36c-4.66699 0 -10 2.33301 -16 7zM1101 586.002v84h-13v18h50v-18h-16v-84h-21zM1162 586.002v102h42v-18h-24v-18h20v-22h-20v-23h24v-21h-42zM1226 586.002l11 102.001h25l5 -36c2 -14.667 3 -25.334 3 -32.001
c0.666992 3.33301 2.66699 14 6 32l2 36h25l11 -102h-20l-5 46v38l-11 -84h-16l-13 84v-12c-0.666992 -7.33301 -1 -13.333 -1 -18v-8l-4 -46h-18zM1333 591.003v23c6.66699 -5.33301 11.667 -8 15 -8c7.33301 0 11 4.66699 11 14l-13 14
c-8.66699 9.33301 -13 18.333 -13 27c0 18 8.66699 27 26 27c6.66699 0 12 -1.33301 16 -4v-16l-14 4c-4 0 -6 -3.66699 -6 -11l12 -18c6.66699 -10 10 -17.667 10 -23c0 -24 -8.66699 -36 -26 -36c-5.33301 0 -11.333 2.33301 -18 7zM875 434.003l171 -309
c16 -20 30 -30 42 -30c16 0 25.667 12.667 29 38c10 74 8.33301 111 -5 111h-4c-2 -0.666992 -4.33301 -1 -7 -1l-27 -18l61 189v-507l-268 527h8zM1393 434.003c-58 -114 -114.333 -217 -169 -309c-12 -20 -26.667 -30 -44 -30c-16 0 -25.333 12.667 -28 38
c-7.33301 74 -4 111 10 111h2c10.667 -6 20.667 -12.333 30 -19l-59 189v-507l267 527h-9zM867 445.003h535v-11h-535v11z" />
    <glyph glyph-name="Atilde" unicode="&#xc3;" horiz-adv-x="2361" 
d="M110 1523c190.667 -348 419.001 -734.668 685.001 -1160c62 -66.667 120 -100 174 -100c61.333 0 97.666 43.667 108.999 131c15.333 116 23 206.333 23 271c0 96 -15.333 144 -46 144h-11c-4.66699 0 -12 -3 -22 -9c-62 -37.333 -99 -56.666 -111 -57.999l244 708v-1894
l-1078 1967h33zM2205 1523c-194.667 -348 -425.333 -734.667 -692 -1160c-56.667 -66.667 -113.334 -100 -170.001 -100c-61.333 0 -98.666 43.667 -111.999 131c-16 103.333 -24 191.333 -24 264c0 100.667 17.667 151 53 151h8c3.33301 0 45.333 -22.333 126 -67l-239 708
v-1894l1083 1967h-33zM77.002 1555h2161v-37h-2161v37z" />
    <glyph glyph-name="Adieresis" unicode="&#xc4;" horiz-adv-x="1440" 
d="M721 1612l739 -1612h-208l-177 387h-706l-176 -387h-210zM721 1188l-272 -625h547zM504 2011c34 0 63.333 -11.833 88 -35.5s37 -52.5 37 -86.5c0 -34.667 -12.167 -64.167 -36.5 -88.5s-53.833 -36.5 -88.5 -36.5c-34 0 -63 12.333 -87 37s-36 54 -36 88
s12 62.833 36 86.5s53 35.5 87 35.5zM936 2011c33.333 0 62.5 -12 87.5 -36s37.5 -52.667 37.5 -86c0 -35.333 -12 -65 -36 -89s-53.667 -36 -89 -36c-34 0 -63.333 12.333 -88 37s-37 54 -37 88c0 33.333 12.5 62 37.5 86s54.167 36 87.5 36z" />
    <glyph glyph-name="Aring" unicode="&#xc5;" horiz-adv-x="1440" 
d="M721 1612l739 -1612h-208l-177 387h-706l-176 -387h-210zM721 1188l-272 -625h547zM725 2091c49.333 0 92.166 -18.001 128.499 -54.001s54.5 -78.667 54.5 -128c0 -71.333 -30.667 -125.666 -92 -162.999c-27.333 -16.667 -57.666 -25 -90.999 -25
c-52.667 0 -97.167 18.167 -133.5 54.5s-54.5 80.833 -54.5 133.5c0 50.667 18.5 93.667 55.5 129s81.167 53 132.5 53zM725 2001c-26 0 -48.5029 -8.83105 -67.5029 -26.498s-28.5 -39.5 -28.5 -65.5c0 -26.667 9.33301 -49.334 28 -68.001s41.334 -28 68.001 -28
c24.667 0 45.834 9.66699 63.501 29s26.5 41.666 26.5 66.999s-8.66699 47 -26 65s-38.666 27 -63.999 27z" />
    <glyph glyph-name="AE" unicode="&#xc6;" horiz-adv-x="2040" 
d="M744 1544h676l75 -176h-630l184 -432h618l82 -176h-620l248 -584h638l76 -176h-831l-168 387h-705l-174 -387h-213zM752 1159l-283 -596h551z" />
    <glyph glyph-name="Ccedilla" unicode="&#xc7;" horiz-adv-x="1352" 
d="M1272 303l0.000976562 -226.998c-127.333 -72.667 -261.666 -109 -402.999 -109c-106.667 0 -209 20.667 -307 62c-202.667 85.333 -348.334 231.666 -437.001 438.999c-43.333 101.333 -65 209.666 -65 324.999c0 170 52 321.333 156 454
c79.333 100.667 176.666 180.667 291.999 240c118 60 239.667 90 365 90c148.667 0 281.667 -33.333 399 -100v-225c-119.333 102 -256.666 153 -411.999 153c-163.333 0 -305.5 -61 -426.5 -183s-181.5 -265 -181.5 -429c0 -186.667 60.5 -341.5 181.5 -464.5
s263.167 -184.5 426.5 -184.5c147.333 0 284.666 53 411.999 159zM697.001 -36.998l143 -60l-211 -276l-109 57z" />
    <glyph glyph-name="Egrave" unicode="&#xc8;" horiz-adv-x="1067" 
d="M148 1544h829v-176h-637v-432h621v-176h-621v-584h637v-176h-829v1544zM324 2005l168 86l256 -340l-88 -55z" />
    <glyph glyph-name="Eacute" unicode="&#xc9;" horiz-adv-x="1067" 
d="M148 1544h829v-176h-637v-432h621v-176h-621v-584h637v-176h-829v1544zM600 2091l172 -86l-340 -309l-88 55z" />
    <glyph glyph-name="Ecircumflex" unicode="&#xca;" horiz-adv-x="1067" 
d="M148 1544h829v-176h-637v-432h621v-176h-621v-584h637v-176h-829v1544zM533 2091l327 -295l-120 -96l-207 197l-209 -197l-119 96z" />
    <glyph glyph-name="Edieresis" unicode="&#xcb;" horiz-adv-x="1067" 
d="M148 1544h829v-176h-637v-432h621v-176h-621v-584h637v-176h-829v1544zM344 2011c33.333 0 62.5 -12 87.5 -36s37.5 -52.667 37.5 -86c0 -35.333 -12 -65 -36 -89s-53.667 -36 -89 -36c-34 0 -63.333 12.333 -88 37s-37 54 -37 88c0 33.333 12.5 62 37.5 86
s54.167 36 87.5 36zM776 2011c34.667 0 63.834 -11.667 87.501 -35s35.5 -52.333 35.5 -87s-11.833 -64.167 -35.5 -88.5s-52.834 -36.5 -87.501 -36.5s-64 12.167 -88 36.5s-36 53.833 -36 88.5c0 34 12.167 62.833 36.5 86.5s53.5 35.5 87.5 35.5z" />
    <glyph glyph-name="Igrave" unicode="&#xcc;" horiz-adv-x="475" 
d="M144 1544h192v-1544h-192v1544zM25 2005l168 86l256 -340l-88 -55z" />
    <glyph glyph-name="Iacute" unicode="&#xcd;" horiz-adv-x="475" 
d="M140 1544h192v-1544h-192v1544zM281 2091l172 -86l-340 -309l-88 55z" />
    <glyph glyph-name="Icircumflex" unicode="&#xce;" horiz-adv-x="475" 
d="M140 1544h192v-1544h-192v1544zM236 2091l327 -295l-118 -96l-209 197l-207 -197l-121 96z" />
    <glyph glyph-name="Idieresis" unicode="&#xcf;" horiz-adv-x="475" 
d="M144 1544h192v-1544h-192v1544zM21 2011c34 0 63.002 -11.833 87.002 -35.5s36 -52.5 36 -86.5c0 -34.667 -11.833 -64.167 -35.5 -88.5s-52.834 -36.5 -87.501 -36.5s-64.334 12.167 -89.001 36.5s-37 53.833 -37 88.5c0 34 12.5 62.833 37.5 86.5s54.5 35.5 88.5 35.5z
M453.002 2011c34 0 63.001 -11.833 87.001 -35.5s36 -52.5 36 -86.5c0 -34.667 -11.833 -64.167 -35.5 -88.5s-52.834 -36.5 -87.501 -36.5s-64.167 12.167 -88.5 36.5s-36.5 53.833 -36.5 88.5c0 34 12.333 62.833 37 86.5s54 35.5 88 35.5z" />
    <glyph glyph-name="Eth" unicode="&#xd0;" horiz-adv-x="1596" 
d="M944 781h613.002v-68c0 -209.333 -68 -385.666 -204 -528.999c-138 -146 -311 -219 -519 -219h-44c-6.66699 1.33301 -11.334 2 -14.001 2c-106.667 0 -215.667 32.667 -327 98c-93.333 54.667 -170 122.667 -230 204c-118.667 161.333 -178 332 -178 512
c0 124.667 34 249 102 373c103.333 189.333 254 316.666 452 381.999c82.667 27.333 159 41 229 41c140 0 260.5 -23.167 361.5 -69.5s198.167 -122.166 291.5 -227.499l-141 -131c-127.333 168 -294 252 -500 252c-101.333 0 -198.333 -27.333 -291 -82
c-89.333 -52 -162.666 -122 -219.999 -210c-62 -94.667 -93 -200 -93 -316l4 -12c0 -112 28 -217.833 84 -317.5s131.667 -178.834 227 -237.501c89.333 -54.667 177.333 -82 264 -82c89.333 0 174.166 19.833 254.499 59.5s146.166 95.5 197.499 167.5
c56.667 79.333 85 157 85 233h-404v177zM1056 2104h147c-27.333 -126.667 -99 -212 -215 -256c-54.667 -20.667 -116 -31 -184 -31c-67.333 0 -135 30 -203 90c-60 53.333 -98 119 -114 197h149c31.333 -94 93.333 -146 186 -156c120 0 198 52 234 156z" />
    <glyph glyph-name="Ntilde" unicode="&#xd1;" horiz-adv-x="1608" 
d="M129 1620l1159 -1220v1144h197v-1608l-1165 1217v-1153h-191v1620zM1104 2001l96.001 -79.999c-21.333 -46.667 -54.333 -86.334 -99 -119.001c-46.667 -34 -94.667 -51 -144 -51c-32 5.33301 -63.333 14.333 -94 27l-105 43c-42.667 17.333 -76.667 29 -102 35h-19
c-50 0 -91.667 -30.667 -125 -92l-96 79c61.333 109.333 137 164 227 164c35.333 0 61.666 -4 78.999 -12l104 -48c54 -24.667 93.333 -38.667 118 -42c8.66699 0 15.667 -1.33301 21 -4c58 0 104.333 33.333 139 100z" />
    <glyph glyph-name="Ograve" unicode="&#xd2;" horiz-adv-x="1696" 
d="M848 1401c-111.333 0 -214 -27.668 -308 -83.001s-168.833 -131.5 -224.5 -228.5s-83.5 -202.833 -83.5 -317.5c0 -112.667 27.167 -216.5 81.5 -311.5s129.5 -170.833 225.5 -227.5s199 -85 309 -85c110.667 0 213.167 27.833 307.5 83.5s169.5 131.834 225.5 228.501
s84 200.667 84 312c0 112 -27 216.333 -81 313s-128.833 173.5 -224.5 230.5s-199.5 85.5 -311.5 85.5zM848 1577c224.667 0 415.666 -77.9971 572.999 -233.997s236 -346.333 236 -571c0 -144.667 -35.667 -278.5 -107 -401.5s-169.666 -221 -294.999 -294
s-261 -109.5 -407 -109.5c-144.667 0 -278.667 35.667 -402 107s-221.666 169.666 -294.999 294.999s-110 259.666 -110 402.999c0 144.667 36 278.667 108 402s170.667 221.666 296 294.999c123.333 72 257.666 108 402.999 108zM636.999 2001l168 88l256 -340l-88 -57z
" />
    <glyph glyph-name="Oacute" unicode="&#xd3;" horiz-adv-x="1696" 
d="M848 1401c-111.333 0 -214 -27.668 -308 -83.001s-168.833 -131.5 -224.5 -228.5s-83.5 -202.833 -83.5 -317.5c0 -112.667 27.167 -216.5 81.5 -311.5s129.5 -170.833 225.5 -227.5s199 -85 309 -85c110.667 0 213.167 27.833 307.5 83.5s169.5 131.834 225.5 228.501
s84 200.667 84 312c0 112 -27 216.333 -81 313s-128.833 173.5 -224.5 230.5s-199.5 85.5 -311.5 85.5zM848 1577c224.667 0 415.666 -77.9971 572.999 -233.997s236 -346.333 236 -571c0 -144.667 -35.667 -278.5 -107 -401.5s-169.666 -221 -294.999 -294
s-261 -109.5 -407 -109.5c-144.667 0 -278.667 35.667 -402 107s-221.666 169.666 -294.999 294.999s-110 259.666 -110 402.999c0 144.667 36 278.667 108 402s170.667 221.666 296 294.999c123.333 72 257.666 108 402.999 108zM892.999 2091l172 -86l-340 -309l-88 55z
" />
    <glyph glyph-name="Ocircumflex" unicode="&#xd4;" horiz-adv-x="1696" 
d="M848 1401c-111.333 0 -214 -27.668 -308 -83.001s-168.833 -131.5 -224.5 -228.5s-83.5 -202.833 -83.5 -317.5c0 -112.667 27.167 -216.5 81.5 -311.5s129.5 -170.833 225.5 -227.5s199 -85 309 -85c110.667 0 213.167 27.833 307.5 83.5s169.5 131.834 225.5 228.501
s84 200.667 84 312c0 112 -27 216.333 -81 313s-128.833 173.5 -224.5 230.5s-199.5 85.5 -311.5 85.5zM848 1577c224.667 0 415.666 -77.9971 572.999 -233.997s236 -346.333 236 -571c0 -144.667 -35.667 -278.5 -107 -401.5s-169.666 -221 -294.999 -294
s-261 -109.5 -407 -109.5c-144.667 0 -278.667 35.667 -402 107s-221.666 169.666 -294.999 294.999s-110 259.666 -110 402.999c0 144.667 36 278.667 108 402s170.667 221.666 296 294.999c123.333 72 257.666 108 402.999 108zM847.999 2091l328 -295l-119 -96l-209 197
l-207 -197l-121 96z" />
    <glyph glyph-name="Otilde" unicode="&#xd5;" horiz-adv-x="1696" 
d="M848 1401c-111.333 0 -214 -27.668 -308 -83.001s-168.833 -131.5 -224.5 -228.5s-83.5 -202.833 -83.5 -317.5c0 -112.667 27.167 -216.5 81.5 -311.5s129.5 -170.833 225.5 -227.5s199 -85 309 -85c110.667 0 213.167 27.833 307.5 83.5s169.5 131.834 225.5 228.501
s84 200.667 84 312c0 112 -27 216.333 -81 313s-128.833 173.5 -224.5 230.5s-199.5 85.5 -311.5 85.5zM848 1577c224.667 0 415.666 -77.9971 572.999 -233.997s236 -346.333 236 -571c0 -144.667 -35.667 -278.5 -107 -401.5s-169.666 -221 -294.999 -294
s-261 -109.5 -407 -109.5c-144.667 0 -278.667 35.667 -402 107s-221.666 169.666 -294.999 294.999s-110 259.666 -110 402.999c0 144.667 36 278.667 108 402s170.667 221.666 296 294.999c123.333 72 257.666 108 402.999 108zM1145 2001l93.999 -79.999
c-20 -46.667 -52.667 -86.334 -98 -119.001c-47.333 -34 -95.666 -51 -144.999 -51c-31.333 5.33301 -62.333 14.333 -93 27l-105 44c-37.333 16 -71 27.333 -101 34h-21c-50.667 0 -91.667 -30.667 -123 -92l-96 79c61.333 109.333 137 164 227 164c36 0 62.667 -4 80 -12
l103 -48c53.333 -24.667 92 -38.667 116 -42c8.66699 0 15.667 -1.33301 21 -4c56.667 0 103.667 33.333 141 100z" />
    <glyph glyph-name="Odieresis" unicode="&#xd6;" horiz-adv-x="1696" 
d="M848 1401c-111.333 0 -214 -27.668 -308 -83.001s-168.833 -131.5 -224.5 -228.5s-83.5 -202.833 -83.5 -317.5c0 -112.667 27.167 -216.5 81.5 -311.5s129.5 -170.833 225.5 -227.5s199 -85 309 -85c110.667 0 213.167 27.833 307.5 83.5s169.5 131.834 225.5 228.501
s84 200.667 84 312c0 112 -27 216.333 -81 313s-128.833 173.5 -224.5 230.5s-199.5 85.5 -311.5 85.5zM848 1577c224.667 0 415.666 -77.9971 572.999 -233.997s236 -346.333 236 -571c0 -144.667 -35.667 -278.5 -107 -401.5s-169.666 -221 -294.999 -294
s-261 -109.5 -407 -109.5c-144.667 0 -278.667 35.667 -402 107s-221.666 169.666 -294.999 294.999s-110 259.666 -110 402.999c0 144.667 36 278.667 108 402s170.667 221.666 296 294.999c123.333 72 257.666 108 402.999 108zM636.999 2011
c34 0 63.001 -11.833 87.001 -35.5s36 -52.5 36 -86.5c0 -34.667 -11.833 -64.167 -35.5 -88.5s-52.834 -36.5 -87.501 -36.5s-64.167 12.167 -88.5 36.5s-36.5 53.833 -36.5 88.5s12.167 63.667 36.5 87s53.833 35 88.5 35zM1067 2011c34.667 0 64.167 -11.667 88.5 -35
s36.5 -52.333 36.5 -87c0 -35.333 -12 -65 -36 -89s-53.667 -36 -89 -36c-34 0 -63 12.333 -87 37s-36 54 -36 88s12 62.833 36 86.5s53 35.5 87 35.5z" />
    <glyph glyph-name="multiply" unicode="&#xd7;" 
 />
    <glyph glyph-name="Oslash" unicode="&#xd8;" horiz-adv-x="1696" 
d="M457 289c115.333 -94 245.667 -141.001 391 -141.001c110.667 0 213.167 27.833 307.5 83.5s169.5 131.834 225.5 228.501s84 200.667 84 312c0 139.333 -44.667 268.333 -134 387zM365.001 368.999l887.001 877.999c-112.667 102.667 -247.334 154 -404.001 154
c-111.333 0 -214 -27.667 -308 -83s-168.833 -131.5 -224.5 -228.5s-83.5 -202.833 -83.5 -317.5c0 -149.333 44.333 -283.666 133 -402.999zM848.002 1577c200.667 0 379.666 -68.332 536.999 -204.999l202 207l84 -84l-206 -207c128 -150.667 192 -322.667 192 -516
c0 -144.667 -35.667 -278.5 -107 -401.5s-169.666 -221 -294.999 -294s-261 -109.5 -407 -109.5c-195.333 0 -372.666 64.333 -531.999 193l-203 -203l-84 86l199 201c-124.667 136.667 -187 312.667 -187 528c0 144.667 36 278.667 108 402s170.667 221.666 296 294.999
c123.333 72 257.666 108 402.999 108z" />
    <glyph glyph-name="Ugrave" unicode="&#xd9;" horiz-adv-x="1372" 
d="M1061 1544h191v-981c0 -173.333 -51 -315.333 -153 -426c-104.667 -113.333 -243 -170 -415 -170c-113.333 0 -213.333 26.333 -300 79c-90 54.667 -157.667 132.334 -203 233.001c-40 89.333 -60 180.666 -60 273.999v991h191v-944c0 -132 28 -237.667 84 -317
c64.667 -90 160.667 -135 288 -135c251.333 0 377 156.333 377 469v927zM453 2005l168 86l256 -340l-88 -55z" />
    <glyph glyph-name="Uacute" unicode="&#xda;" horiz-adv-x="1372" 
d="M1061 1544h191v-981c0 -173.333 -51 -315.333 -153 -426c-104.667 -113.333 -243 -170 -415 -170c-113.333 0 -213.333 26.333 -300 79c-90 54.667 -157.667 132.334 -203 233.001c-40 89.333 -60 180.666 -60 273.999v991h191v-944c0 -132 28 -237.667 84 -317
c64.667 -90 160.667 -135 288 -135c251.333 0 377 156.333 377 469v927zM727 2091l172 -86l-340 -309l-88 55z" />
    <glyph glyph-name="Ucircumflex" unicode="&#xdb;" horiz-adv-x="1372" 
d="M1065 1544h191v-981c0 -173.333 -51 -315.333 -153 -426c-104.667 -113.333 -243 -170 -415 -170c-113.333 0 -213.333 26.333 -300 79c-90 54.667 -157.667 132.334 -203 233.001c-40 89.333 -60 180.666 -60 273.999v991h191v-944c0 -133.333 27.667 -239 83 -317
c64 -90 160.333 -135 289 -135c251.333 0 377 156.333 377 469v927zM688 2091l328 -295l-119 -96l-209 197l-209 -197l-118 96z" />
    <glyph glyph-name="Udieresis" unicode="&#xdc;" horiz-adv-x="1372" 
d="M1065 1544h191v-981c0 -173.333 -51 -315.333 -153 -426c-104.667 -113.333 -243 -170 -415 -170c-113.333 0 -213.333 26.333 -300 79c-90 54.667 -157.667 132.334 -203 233.001c-40 89.333 -60 180.666 -60 273.999v991h191v-944c0 -133.333 27.667 -239 83 -317
c64 -90 160.333 -135 289 -135c251.333 0 377 156.333 377 469v927zM471 2011c34.667 0 64.167 -11.667 88.5 -35s36.5 -52.333 36.5 -87c0 -35.333 -12 -65 -36 -89s-53.667 -36 -89 -36c-34 0 -63 12.333 -87 37s-36 54 -36 88s12 62.833 36 86.5s53 35.5 87 35.5z
M903 2011c35.333 0 65 -11.5 89 -34.5s36 -52.167 36 -87.5c0 -36 -11.833 -65.833 -35.5 -89.5s-53.5 -35.5 -89.5 -35.5c-34.667 0 -63.667 12.167 -87 36.5s-35 53.833 -35 88.5c0 34 11.833 62.833 35.5 86.5s52.5 35.5 86.5 35.5z" />
    <glyph glyph-name="Yacute" unicode="&#xdd;" horiz-adv-x="475" 
d="M140 1544h192v-1544h-192v1544zM247 2048c30.667 0 56.333 -11 77 -33s31 -48.333 31 -79s-11 -56 -33 -76s-48.333 -30 -79 -30s-56 11 -76 33s-30 48.667 -30 80c0 28 11.333 52.5 34 73.5s48 31.5 76 31.5z" />
    <glyph glyph-name="Thorn" unicode="&#xde;" horiz-adv-x="1100" 
d="M836 1252c-58 99.333 -142 149 -252 149c-97.333 0 -171.333 -38 -222 -114c-22.667 -34 -34 -67 -34 -99c0 -98 50.333 -166.333 151 -205l176 -68c179.333 -69.333 293 -160.666 341 -273.999c27.333 -64.667 41 -130 41 -196c0 -97.333 -27.333 -184.833 -82 -262.5
s-127.667 -135.834 -219 -174.501c-64 -27.333 -126.333 -41 -187 -41c-171.333 0 -304.333 69 -399 207c-46 66.667 -73.333 142 -82 226l192 41c0 -61.333 15.667 -115.666 47 -162.999c57.333 -86.667 141.333 -130 252 -130c74 0 137.833 24.333 191.5 73
s83.5 109.667 89.5 183l4 51c6 76 -21.333 137.667 -82 185c-48 37.333 -120 76.666 -216 117.999c-113.333 48.667 -188 83.667 -224 105c-124.667 74 -187 183.667 -187 329c0 98 40.333 185.333 121 262c88 83.333 200 125 336 125c173.333 0 305 -78.333 395 -235z
M576 -37l143 -60l-211 -276l-109 57z" />
    <glyph glyph-name="germandbls" unicode="&#xdf;" horiz-adv-x="1188" 
d="M140 793h-83.998v172h84v328c0 156 34 278 102 366c76 97.333 190 146 342 146c177.333 0 308.666 -76 393.999 -228c39.333 -70 59 -146.333 59 -229c0 -140.667 -64.333 -250 -193 -328c120 -36 211 -125.667 273 -269c29.333 -68 44 -140 44 -216v-38
c-1.33301 -6.66699 -2 -11 -2 -13c0 -85.333 -30 -172 -90 -260c-56.667 -84 -124.334 -146.667 -203.001 -188c-87.333 -46 -184 -69 -290 -69v173c68.667 0 135 18.333 199 55c134.667 76.667 202 188 202 334c0 89.333 -25.333 166.333 -76 231
c-49.333 62.667 -117.333 106.667 -204 132c-36.667 10.667 -77 16 -121 16v180c104.667 0 185 45 241 135c26 42 39 89 39 141c0 74 -27.667 137 -83 189c-54 50 -118.333 75 -193 75c-170.667 0 -256 -129.667 -256 -389v-1239h-184v793z" />
    <glyph glyph-name="agrave" unicode="&#xe0;" horiz-adv-x="1141" 
d="M844 961l183.999 -0.00195312v-961h-184v156c-89.333 -126 -200 -189 -332 -189c-70 0 -132.333 13 -187 39c-90 42.667 -159 108.334 -207 197.001c-44.667 82.667 -67 176.334 -67 281.001c0 208.667 78.667 356.667 236 444c70.667 39.333 145.667 59 225 59
c34.667 0 72.667 -6.66699 114 -20c94.667 -30.667 167.334 -88.667 218.001 -174v168zM851.999 487.998c0 93.333 -27.334 172.001 -82.001 236.001c-58 66.667 -133 100 -225 100c-112 0 -199.333 -52 -262 -156c-31.333 -52 -47 -113.333 -47 -184
c0 -142.667 51.333 -246.334 154 -311.001c46.667 -29.333 94.334 -44 143.001 -44c100 0 179 35.667 237 107c54.667 66 82 150 82 252zM360.998 1415l168 88l256 -339l-88 -56z" />
    <glyph glyph-name="aacute" unicode="&#xe1;" horiz-adv-x="1141" 
d="M844 961l183.999 -0.00195312v-961h-184v156c-89.333 -126 -200 -189 -332 -189c-70 0 -132.333 13 -187 39c-90 42.667 -159 108.334 -207 197.001c-44.667 82.667 -67 176.334 -67 281.001c0 208.667 78.667 356.667 236 444c70.667 39.333 145.667 59 225 59
c34.667 0 72.667 -6.66699 114 -20c94.667 -30.667 167.334 -88.667 218.001 -174v168zM851.999 487.998c0 93.333 -27.334 172.001 -82.001 236.001c-58 66.667 -133 100 -225 100c-112 0 -199.333 -52 -262 -156c-31.333 -52 -47 -113.333 -47 -184
c0 -142.667 51.333 -246.334 154 -311.001c46.667 -29.333 94.334 -44 143.001 -44c100 0 179 35.667 237 107c54.667 66 82 150 82 252zM612.998 1503l172 -88l-340 -307l-88 56z" />
    <glyph glyph-name="acircumflex" unicode="&#xe2;" horiz-adv-x="1141" 
d="M844 961l183.999 -0.00195312v-961h-184v156c-89.333 -126 -200 -189 -332 -189c-70 0 -132.333 13 -187 39c-90 42.667 -159 108.334 -207 197.001c-44.667 82.667 -67 176.334 -67 281.001c0 208.667 78.667 356.667 236 444c70.667 39.333 145.667 59 225 59
c34.667 0 72.667 -6.66699 114 -20c94.667 -30.667 167.334 -88.667 218.001 -174v168zM851.999 487.998c0 93.333 -27.334 172.001 -82.001 236.001c-58 66.667 -133 100 -225 100c-112 0 -199.333 -52 -262 -156c-31.333 -52 -47 -113.333 -47 -184
c0 -142.667 51.333 -246.334 154 -311.001c46.667 -29.333 94.334 -44 143.001 -44c100 0 179 35.667 237 107c54.667 66 82 150 82 252zM567.998 1503l329 -294l-121 -97l-208 197l-207 -197l-121 97z" />
    <glyph glyph-name="atilde" unicode="&#xe3;" horiz-adv-x="1141" 
d="M844 961l183.999 -0.00195312v-961h-184v156c-89.333 -126 -200 -189 -332 -189c-70 0 -132.333 13 -187 39c-90 42.667 -159 108.334 -207 197.001c-44.667 82.667 -67 176.334 -67 281.001c0 208.667 78.667 356.667 236 444c70.667 39.333 145.667 59 225 59
c34.667 0 72.667 -6.66699 114 -20c94.667 -30.667 167.334 -88.667 218.001 -174v168zM851.999 487.998c0 93.333 -27.334 172.001 -82.001 236.001c-58 66.667 -133 100 -225 100c-112 0 -199.333 -52 -262 -156c-31.333 -52 -47 -113.333 -47 -184
c0 -142.667 51.333 -246.334 154 -311.001c46.667 -29.333 94.334 -44 143.001 -44c100 0 179 35.667 237 107c54.667 66 82 150 82 252zM868.998 1411l95.999 -80c-22.667 -47.333 -55.667 -86.666 -99 -117.999c-46.667 -32.667 -95 -49 -145 -49
c-34 4.66699 -59.667 10.667 -77 18l-106 44c-51.333 21.333 -90.666 35.333 -117.999 42h-20c-50 0 -91 -30.667 -123 -92l-97 80c61.333 109.333 137.333 164 228 164c32 0 70 -9 114 -27c12 -6.66699 27.333 -14.334 46 -23.001l78 -37c12 -6 33 -11.333 63 -16
c8.66699 0 14.667 -1.33301 18 -4c56 0 103.333 32.667 142 98z" />
    <glyph glyph-name="adieresis" unicode="&#xe4;" horiz-adv-x="1141" 
d="M844 961l183.999 -0.00195312v-961h-184v156c-89.333 -126 -200 -189 -332 -189c-70 0 -132.333 13 -187 39c-90 42.667 -159 108.334 -207 197.001c-44.667 82.667 -67 176.334 -67 281.001c0 208.667 78.667 356.667 236 444c70.667 39.333 145.667 59 225 59
c34.667 0 72.667 -6.66699 114 -20c94.667 -30.667 167.334 -88.667 218.001 -174v168zM851.999 487.998c0 93.333 -27.334 172.001 -82.001 236.001c-58 66.667 -133 100 -225 100c-112 0 -199.333 -52 -262 -156c-31.333 -52 -47 -113.333 -47 -184
c0 -142.667 51.333 -246.334 154 -311.001c46.667 -29.333 94.334 -44 143.001 -44c100 0 179 35.667 237 107c54.667 66 82 150 82 252zM356.998 1424c34 0 62.833 -12.001 86.5 -36.001s35.5 -53 35.5 -87c0 -34.667 -11.667 -64.167 -35 -88.5s-52.333 -36.5 -87 -36.5
s-64.167 12.167 -88.5 36.5s-36.5 53.833 -36.5 88.5c0 32.667 12.667 61.334 38 86.001s54.333 37 87 37zM788.998 1424c32.667 0 61.334 -12.333 86.001 -37s37 -53.334 37 -86.001c0 -34.667 -11.833 -64.167 -35.5 -88.5s-52.834 -36.5 -87.501 -36.5
s-64.167 12.167 -88.5 36.5s-36.5 53.833 -36.5 88.5c0 32.667 12.667 61.334 38 86.001s54.333 37 87 37z" />
    <glyph glyph-name="aring" unicode="&#xe5;" horiz-adv-x="1141" 
d="M844 961l183.999 -0.00195312v-961h-184v156c-89.333 -126 -200 -189 -332 -189c-70 0 -132.333 13 -187 39c-90 42.667 -159 108.334 -207 197.001c-44.667 82.667 -67 176.334 -67 281.001c0 208.667 78.667 356.667 236 444c70.667 39.333 145.667 59 225 59
c34.667 0 72.667 -6.66699 114 -20c94.667 -30.667 167.334 -88.667 218.001 -174v168zM851.999 487.998c0 93.333 -27.334 172.001 -82.001 236.001c-58 66.667 -133 100 -225 100c-112 0 -199.333 -52 -262 -156c-31.333 -52 -47 -113.333 -47 -184
c0 -142.667 51.333 -246.334 154 -311.001c46.667 -29.333 94.334 -44 143.001 -44c100 0 179 35.667 237 107c54.667 66 82 150 82 252zM571.998 1503c49.333 0 92.333 -18 129 -54s55 -78.667 55 -128c0 -52 -17.833 -96.333 -53.5 -133s-79.167 -55 -130.5 -55
c-52.667 0 -97 18.167 -133 54.5s-54 80.833 -54 133.5c0 68.667 31.333 121 94 157c28.667 16.667 59.667 25 93 25zM571.998 1411c-26.667 0 -49.5 -8.50195 -68.5 -25.502s-28.5 -38.5 -28.5 -64.5s9.66699 -48.5 29 -67.5s42 -28.5 68 -28.5
c24.667 0 46.167 9.83301 64.5 29.5s27.5 41.834 27.5 66.501s-9.16699 45.834 -27.5 63.501s-39.833 26.5 -64.5 26.5z" />
    <glyph glyph-name="ae" unicode="&#xe6;" horiz-adv-x="1653" 
d="M193 961c78 14.667 163.332 22.0039 255.999 22.0039c185.333 0 305.333 -51.667 360 -155c84 106 203.667 159 359 159c172 0 299.333 -67.667 382 -203c49.333 -80.667 74 -192.334 74 -335.001h-735c0 -92.667 28.167 -168.834 84.5 -228.501s130.5 -89.5 222.5 -89.5
c112 0 203 63 273 189l155 -92c-103.333 -174 -248.666 -261 -435.999 -261c-147.333 0 -273 59 -377 177c-84.667 -118 -206.667 -177 -366 -177c-148.667 0 -262 47.667 -340 143c-38.667 47.333 -58 101.666 -58 162.999c2.66699 7.33301 4 14 4 20
c0 56 19.667 111.667 59 167c66.667 93.333 168.667 140 306 140c123.333 0 221 -28 293 -84l2 41c6 121.333 -32.333 202.666 -115 243.999c-46 18 -103.333 27 -172 27c-70.667 0 -147.667 -10.333 -231 -31v164zM700.999 293.004
c0 50.667 -30.001 90.998 -90.001 120.998c-48.667 23.333 -101.334 35 -158.001 35c-54 0 -102.667 -12.667 -146 -38c-50.667 -29.333 -78.667 -68.666 -84 -117.999c0 -51.333 27.333 -92.666 82 -123.999c46.667 -26.667 97.334 -40 152.001 -40l6 1l5 1
c86.667 0 153.334 26 200.001 78c22 24.667 33 52.667 33 84zM1444 588.002c-14 104 -63.668 175.333 -149.001 214c-38 17.333 -77.667 26 -119 26c-68 0 -127.167 -23 -177.5 -69s-82.166 -103 -95.499 -171h541z" />
    <glyph glyph-name="ccedilla" unicode="&#xe7;" horiz-adv-x="903" 
d="M469 -37l144 -60l-217 -276l-107 57zM832 264l0.00195312 -234.998c-77.333 -38.667 -164 -58 -260 -58c-92.667 0 -178.334 20.667 -257.001 62c-80.667 42.667 -144.834 102.5 -192.501 179.5s-71.5 162.5 -71.5 256.5s23 180.5 69 259.5s110 141.5 192 187.5
c80 44.667 166.667 67 260 67c99.333 0 186 -19.667 260 -59v-240c-73.333 87.333 -167.666 131 -282.999 131c-84 0 -157.167 -33.333 -219.5 -100s-93.5 -142.334 -93.5 -227.001c0 -130 48.667 -228.333 146 -295c51.333 -35.333 109 -53 173 -53c60 0 111 10 153 30
c37.333 17.333 78.666 48.666 123.999 93.999z" />
    <glyph glyph-name="egrave" unicode="&#xe8;" horiz-adv-x="1000" 
d="M811 320l158.001 -92.001c-105.333 -174 -256.333 -261 -453 -261c-140 0 -253 50.667 -339 152c-84 98.667 -126 231 -126 397c0 58.667 12.667 120.334 38 185.001c46.667 119.333 125 202.333 235 249c58 24.667 122 37 192 37
c201.333 0 336.666 -84.667 405.999 -254c32.667 -79.333 47.667 -155 45 -227l-2 -57h-725c0 -90.667 26.333 -166 79 -226c56 -62.667 128.667 -94 218 -94c118 0 209.333 63.667 274 191zM785.001 587.999c-10 70.667 -37 127.667 -81 171c-46.667 46 -105 69 -175 69
c-74.667 0 -137 -21.5 -187 -64.5s-81.333 -101.5 -94 -175.5h537zM293.001 1415l168 88l256 -339l-88 -56z" />
    <glyph glyph-name="eacute" unicode="&#xe9;" horiz-adv-x="1000" 
d="M811 320l158.001 -92.001c-105.333 -174 -256.333 -261 -453 -261c-140 0 -253 50.667 -339 152c-84 98.667 -126 231 -126 397c0 58.667 12.667 120.334 38 185.001c46.667 119.333 125 202.333 235 249c58 24.667 122 37 192 37
c201.333 0 336.666 -84.667 405.999 -254c32.667 -79.333 47.667 -155 45 -227l-2 -57h-725c0 -90.667 26.333 -166 79 -226c56 -62.667 128.667 -94 218 -94c118 0 209.333 63.667 274 191zM785.001 587.999c-10 70.667 -37 127.667 -81 171c-46.667 46 -105 69 -175 69
c-74.667 0 -137 -21.5 -187 -64.5s-81.333 -101.5 -94 -175.5h537zM545.001 1503l172 -88l-340 -307l-88 56z" />
    <glyph glyph-name="ecircumflex" unicode="&#xea;" horiz-adv-x="1000" 
d="M811 320l158.001 -92.001c-105.333 -174 -256.333 -261 -453 -261c-140 0 -253 50.667 -339 152c-84 98.667 -126 231 -126 397c0 58.667 12.667 120.334 38 185.001c46.667 119.333 125 202.333 235 249c58 24.667 122 37 192 37
c201.333 0 336.666 -84.667 405.999 -254c32.667 -79.333 47.667 -155 45 -227l-2 -57h-725c0 -90.667 26.333 -166 79 -226c56 -62.667 128.667 -94 218 -94c118 0 209.333 63.667 274 191zM785.001 587.999c-10 70.667 -37 127.667 -81 171c-46.667 46 -105 69 -175 69
c-74.667 0 -137 -21.5 -187 -64.5s-81.333 -101.5 -94 -175.5h537zM500.001 1503l328 -294l-119 -97l-209 197l-207 -197l-121 97z" />
    <glyph glyph-name="edieresis" unicode="&#xeb;" horiz-adv-x="1000" 
d="M811 320l158.001 -92.001c-105.333 -174 -256.333 -261 -453 -261c-140 0 -253 50.667 -339 152c-84 98.667 -126 231 -126 397c0 58.667 12.667 120.334 38 185.001c46.667 119.333 125 202.333 235 249c58 24.667 122 37 192 37
c201.333 0 336.666 -84.667 405.999 -254c32.667 -79.333 47.667 -155 45 -227l-2 -57h-725c0 -90.667 26.333 -166 79 -226c56 -62.667 128.667 -94 218 -94c118 0 209.333 63.667 274 191zM785.001 587.999c-10 70.667 -37 127.667 -81 171c-46.667 46 -105 69 -175 69
c-74.667 0 -137 -21.5 -187 -64.5s-81.333 -101.5 -94 -175.5h537zM281.001 1424c32.667 0 61.334 -12.333 86.001 -37s37 -53.334 37 -86.001c0 -34.667 -11.833 -64.167 -35.5 -88.5s-52.834 -36.5 -87.501 -36.5s-64.167 12.167 -88.5 36.5s-36.5 53.833 -36.5 88.5
c0 32.667 12.667 61.334 38 86.001s54.333 37 87 37zM713.001 1424c34 0 62.999 -11.999 86.999 -35.999s36 -53 36 -87c0 -35.333 -11.667 -65 -35 -89s-52.666 -36 -87.999 -36c-34.667 0 -64.167 12.167 -88.5 36.5s-36.5 53.833 -36.5 88.5
c0 33.333 12.5 62.166 37.5 86.499s54.167 36.5 87.5 36.5z" />
    <glyph glyph-name="igrave" unicode="&#xec;" horiz-adv-x="520" 
d="M168 961h185v-961h-185v961zM47 1415l168 88l256 -339l-86 -56z" />
    <glyph glyph-name="iacute" unicode="&#xed;" horiz-adv-x="520" 
d="M168 961h185v-961h-185v961zM299 1503l172 -88l-340 -307l-88 56z" />
    <glyph glyph-name="icircumflex" unicode="&#xee;" horiz-adv-x="520" 
d="M168 961h185v-961h-185v961zM260 1503l328 -294l-119 -97l-209 197l-209 -197l-119 97z" />
    <glyph glyph-name="idieresis" unicode="&#xef;" horiz-adv-x="520" 
d="M168 961h185v-961h-185v961zM43 1424c34 0 63.332 -12.001 87.999 -36.001s37 -53 37 -87c0 -35.333 -12 -65 -36 -89s-53.667 -36 -89 -36c-34 0 -63 12.333 -87 37s-36 54 -36 88c0 32.667 12.333 61.334 37 86.001s53.334 37 86.001 37zM474.999 1424
c34 0 63.333 -12.001 88 -36.001s37 -53 37 -87c0 -36 -11.833 -65.833 -35.5 -89.5s-53.5 -35.5 -89.5 -35.5c-34.667 0 -63.667 12.167 -87 36.5s-35 53.833 -35 88.5c0 32.667 12.167 61.334 36.5 86.001s52.833 37 85.5 37z" />
    <glyph glyph-name="eth" unicode="&#xf0;" horiz-adv-x="1137" 
d="M840 789v172h184v-961c0 -281.333 -81.333 -452 -244 -512c-66.667 -24.667 -139 -37 -217 -37c-191.333 0 -327.333 69 -408 207c-38.667 66 -58 141 -58 225h184c0 -178.667 99.667 -268 299 -268c173.333 0 260 105.667 260 317v224l-41 -62
c-34 -51.333 -83.333 -87.333 -148 -108c-39.333 -12.667 -89.666 -19 -150.999 -19c-182.667 0 -313.334 85 -392.001 255c-38 82 -57 174.667 -57 278c0 121.333 38.333 230.333 115 327c84.667 106.667 194.667 160 330 160c148 0 262.667 -66 344 -198zM852 488
c0 143.333 -55.3311 243.333 -165.998 300c-46.667 24 -92.334 36 -137.001 36c-128.667 0 -220.334 -56.333 -275.001 -169c-25.333 -52 -38 -106.333 -38 -163c0 -79.333 16.667 -149.333 50 -210c37.333 -68 91 -113.667 161 -137c28 -9.33301 58 -14 90 -14
c127.333 0 219 56 275 168c26.667 53.333 40 116.333 40 189zM763.002 1474h147c-27.333 -126.667 -99 -212 -215 -256c-54.667 -20.667 -116 -31 -184 -31c-67.333 0 -135 30 -203 90c-60 53.333 -98 119 -114 197h149c31.333 -94 93.333 -146 186 -156
c120 0 198 52 234 156z" />
    <glyph glyph-name="ntilde" unicode="&#xf1;" horiz-adv-x="1071" 
d="M129 961h183v-137c70.667 108.667 169.667 163 297 163c223.333 0 335 -137 335 -411v-576h-184v580c0 82 -14.333 141.667 -43 179c-32.667 43.333 -88.667 65 -168 65c-158 0 -237 -99.667 -237 -299v-525h-183v961zM832 1411l95.999 -80c-20 -47.333 -53 -87 -99 -119
s-94.333 -48 -145 -48c-30.667 4 -56.667 10.333 -78 19l-106 43c-58 23.333 -96.333 37.333 -115 42h-20c-49.333 0 -91 -30.667 -125 -92l-96 80c62 109.333 138.333 164 229 164c39.333 0 91.333 -16 156 -48l77 -38c12 -6 34 -11.667 66 -17c8 0 14.667 -1.33301 20 -4
c56.667 0 103.334 32.667 140.001 98z" />
    <glyph glyph-name="ograve" unicode="&#xf2;" horiz-adv-x="1104" 
d="M553 811c-125.333 0 -220.333 -55.667 -285 -167c-30 -52 -45 -108.333 -45 -169c0 -126.667 55 -222 165 -286c51.333 -30 106.333 -45 165 -45c90 0 167.167 32.5 231.5 97.5s96.5 142.833 96.5 233.5c0 128 -54.667 225 -164 291c-49.333 30 -104 45 -164 45zM553 987
c92 0 177.17 -22.334 255.503 -67.001s140.666 -106.667 186.999 -186s69.5 -165.666 69.5 -258.999c0 -90.667 -22.833 -175 -68.5 -253s-107.834 -140 -186.501 -186s-164.334 -69 -257.001 -69c-90.667 0 -175.667 22.833 -255 68.5s-142 107.667 -188 186
s-69 162.833 -69 253.5c0 92.667 22.667 178.167 68 256.5s108.333 140.833 189 187.5c78.667 45.333 163.667 68 255 68zM344.003 1415l168 88l256 -339l-88 -56z" />
    <glyph glyph-name="oacute" unicode="&#xf3;" horiz-adv-x="1104" 
d="M553 811c-125.333 0 -220.333 -55.667 -285 -167c-30 -52 -45 -108.333 -45 -169c0 -126.667 55 -222 165 -286c51.333 -30 106.333 -45 165 -45c90 0 167.167 32.5 231.5 97.5s96.5 142.833 96.5 233.5c0 128 -54.667 225 -164 291c-49.333 30 -104 45 -164 45zM553 987
c92 0 177.17 -22.334 255.503 -67.001s140.666 -106.667 186.999 -186s69.5 -165.666 69.5 -258.999c0 -90.667 -22.833 -175 -68.5 -253s-107.834 -140 -186.501 -186s-164.334 -69 -257.001 -69c-90.667 0 -175.667 22.833 -255 68.5s-142 107.667 -188 186
s-69 162.833 -69 253.5c0 92.667 22.667 178.167 68 256.5s108.333 140.833 189 187.5c78.667 45.333 163.667 68 255 68zM596.003 1499l172 -88l-340 -307l-88 55z" />
    <glyph glyph-name="ocircumflex" unicode="&#xf4;" horiz-adv-x="1104" 
d="M553 811c-125.333 0 -220.333 -55.667 -285 -167c-30 -52 -45 -108.333 -45 -169c0 -126.667 55 -222 165 -286c51.333 -30 106.333 -45 165 -45c90 0 167.167 32.5 231.5 97.5s96.5 142.833 96.5 233.5c0 128 -54.667 225 -164 291c-49.333 30 -104 45 -164 45zM553 987
c92 0 177.17 -22.334 255.503 -67.001s140.666 -106.667 186.999 -186s69.5 -165.666 69.5 -258.999c0 -90.667 -22.833 -175 -68.5 -253s-107.834 -140 -186.501 -186s-164.334 -69 -257.001 -69c-90.667 0 -175.667 22.833 -255 68.5s-142 107.667 -188 186
s-69 162.833 -69 253.5c0 92.667 22.667 178.167 68 256.5s108.333 140.833 189 187.5c78.667 45.333 163.667 68 255 68zM553.003 1503l328 -294l-121 -97l-207 197l-209 -197l-121 97z" />
    <glyph glyph-name="otilde" unicode="&#xf5;" horiz-adv-x="1104" 
d="M553 811c-125.333 0 -220.333 -55.667 -285 -167c-30 -52 -45 -108.333 -45 -169c0 -126.667 55 -222 165 -286c51.333 -30 106.333 -45 165 -45c90 0 167.167 32.5 231.5 97.5s96.5 142.833 96.5 233.5c0 128 -54.667 225 -164 291c-49.333 30 -104 45 -164 45zM553 987
c92 0 177.17 -22.334 255.503 -67.001s140.666 -106.667 186.999 -186s69.5 -165.666 69.5 -258.999c0 -90.667 -22.833 -175 -68.5 -253s-107.834 -140 -186.501 -186s-164.334 -69 -257.001 -69c-90.667 0 -175.667 22.833 -255 68.5s-142 107.667 -188 186
s-69 162.833 -69 253.5c0 92.667 22.667 178.167 68 256.5s108.333 140.833 189 187.5c78.667 45.333 163.667 68 255 68zM852.003 1411l96 -80c-21.333 -47.333 -54.666 -87 -99.999 -119s-93 -48 -143 -48c-32 4 -57.667 10 -77 18l-107 44c-54 22 -93 36 -117 42h-19
c-49.333 0 -91 -30.667 -125 -92l-96 80c61.333 109.333 137 164 227 164c36 0 74 -9 114 -27l47 -23l77 -37c12.667 -6 33.667 -11.333 63 -16c8.66699 0 15.667 -1.33301 21 -4c55.333 0 101.666 32.667 138.999 98z" />
    <glyph glyph-name="odieresis" unicode="&#xf6;" horiz-adv-x="1104" 
d="M553 811c-125.333 0 -220.333 -55.667 -285 -167c-30 -52 -45 -108.333 -45 -169c0 -126.667 55 -222 165 -286c51.333 -30 106.333 -45 165 -45c90 0 167.167 32.5 231.5 97.5s96.5 142.833 96.5 233.5c0 128 -54.667 225 -164 291c-49.333 30 -104 45 -164 45zM553 987
c92 0 177.17 -22.334 255.503 -67.001s140.666 -106.667 186.999 -186s69.5 -165.666 69.5 -258.999c0 -90.667 -22.833 -175 -68.5 -253s-107.834 -140 -186.501 -186s-164.334 -69 -257.001 -69c-90.667 0 -175.667 22.833 -255 68.5s-142 107.667 -188 186
s-69 162.833 -69 253.5c0 92.667 22.667 178.167 68 256.5s108.333 140.833 189 187.5c78.667 45.333 163.667 68 255 68zM336.003 1424c34 0 63.332 -12.001 87.999 -36.001s37 -53 37 -87c0 -35.333 -12 -65 -36 -89s-53.667 -36 -89 -36c-34 0 -63 12.333 -87 37
s-36 54 -36 88c0 32.667 12.333 61.334 37 86.001s53.334 37 86.001 37zM768.002 1424c34 0 63.333 -12.001 88 -36.001s37 -53 37 -87c0 -35.333 -12 -65 -36 -89s-53.667 -36 -89 -36c-34 0 -63.333 12.333 -88 37s-37 54 -37 88c0 32.667 12.667 61.334 38 86.001
s54.333 37 87 37z" />
    <glyph glyph-name="divide" unicode="&#xf7;" 
 />
    <glyph glyph-name="oslash" unicode="&#xf8;" horiz-adv-x="1104" 
d="M1075 940l-131.002 -131.002c80.667 -103.333 121 -216.666 121 -339.999c0 -141.333 -50.667 -261 -152 -359s-222.666 -147 -363.999 -147c-126.667 0 -236.667 40.333 -330 121l-122 -127l-64 60l123 127c-79.333 104.667 -119 216.334 -119 335.001
c0 88 23.833 172 71.5 252s110.334 142.667 188.001 188s163.167 68 256.5 68c124 0 233.333 -39.333 328 -118l131 135zM747.998 743.998c-58.667 43.333 -123.667 65.001 -195 65.001c-124.667 0 -218.667 -57 -282 -171c-32 -58 -48 -113.667 -48 -167
c0 -68.667 23.333 -133.334 70 -194.001zM808.998 675.999l-452 -466.999c51.333 -46 112.666 -69 183.999 -69c58.667 0 114.834 16 168.501 48s95.667 73.667 126 125s45.5 106.666 45.5 165.999c0 71.333 -24 137 -72 197z" />
    <glyph glyph-name="ugrave" unicode="&#xf9;" horiz-adv-x="1049" 
d="M748 961l184 -0.000976562v-553c0 -178 -57 -308 -171 -390c-60 -43.333 -136 -65 -228 -65c-161.333 0 -280.333 69.667 -357 209c-36.667 66.667 -55 143 -55 229v570h182v-545c0 -77.333 18.667 -142.666 56 -195.999c42 -60.667 100 -91 174 -91
c143.333 0 215 95.667 215 287v545zM316 1415l168 88l256 -339l-88 -56z" />
    <glyph glyph-name="uacute" unicode="&#xfa;" horiz-adv-x="1049" 
d="M748 961l184 -0.000976562v-553c0 -178 -57 -308 -171 -390c-60 -43.333 -136 -65 -228 -65c-161.333 0 -280.333 69.667 -357 209c-36.667 66.667 -55 143 -55 229v570h182v-545c0 -77.333 18.667 -142.666 56 -195.999c42 -60.667 100 -91 174 -91
c143.333 0 215 95.667 215 287v545zM568 1503l172 -88l-340 -307l-88 56z" />
    <glyph glyph-name="ucircumflex" unicode="&#xfb;" horiz-adv-x="1049" 
d="M748 961l184 -0.000976562v-553c0 -178 -57 -308 -171 -390c-60 -43.333 -136 -65 -228 -65c-161.333 0 -280.333 69.667 -357 209c-36.667 66.667 -55 143 -55 229v570h182v-545c0 -77.333 18.667 -142.666 56 -195.999c42 -60.667 100 -91 174 -91
c143.333 0 215 95.667 215 287v545zM525 1503l327 -294l-121 -97l-206 197l-209 -197l-119 97z" />
    <glyph glyph-name="udieresis" unicode="&#xfc;" horiz-adv-x="1049" 
d="M748 957l184 -0.00195312v-553c0 -178.667 -57 -309 -171 -391c-59.333 -42.667 -135.333 -64 -228 -64c-162 0 -281 69.333 -357 208c-36.667 66.667 -55 143.334 -55 230.001v570h182v-545c0 -77.333 18.667 -142.666 56 -195.999c42 -60.667 100 -91 174 -91
c143.333 0 215 95.667 215 287v545zM312 1420c34 0 63.167 -12.001 87.5 -36.001s36.5 -53 36.5 -87c0 -36 -11.667 -65.833 -35 -89.5s-53 -35.5 -89 -35.5c-34.667 0 -63.834 12.167 -87.501 36.5s-35.5 53.833 -35.5 88.5c0 32.667 12.333 61.334 37 86.001
s53.334 37 86.001 37zM744 1420c33.333 0 62.5 -12.1689 87.5 -36.502s37.5 -53.166 37.5 -86.499c0 -34.667 -12.167 -64.167 -36.5 -88.5s-53.833 -36.5 -88.5 -36.5s-63.834 12.167 -87.501 36.5s-35.5 53.833 -35.5 88.5c0 32.667 12.333 61.334 37 86.001
s53.334 37 86.001 37z" />
    <glyph glyph-name="yacute" unicode="&#xfd;" horiz-adv-x="520" 
d="M168 961h185v-961h-185v961zM260 1528c36 0 66.168 -12.832 90.501 -38.499s36.5 -56.5 36.5 -92.5c0 -35.333 -13 -65 -39 -89s-56.667 -36 -92 -36c-36.667 0 -66.667 12.833 -90 38.5s-35 57.167 -35 94.5c0 33.333 13.167 62.166 39.5 86.499
s56.166 36.5 89.499 36.5z" />
    <glyph glyph-name="thorn" unicode="&#xfe;" horiz-adv-x="789" 
d="M512 740c-28 56 -69.666 84 -124.999 84c-28.667 0 -52.167 -9.33301 -70.5 -28s-27.5 -42.334 -27.5 -71.001c0 -38 28.667 -71 86 -99l161 -79c132.667 -65.333 199 -155.333 199 -270c0 -112 -52.333 -200.333 -157 -265c-48.667 -30 -101.334 -45 -158.001 -45
c-174.667 0 -290.667 71 -348 213l160 76c36 -84.667 93.333 -127 172 -127c34 0 64.833 10.833 92.5 32.5s45.167 49.167 52.5 82.5c0 49.333 -24.667 92 -74 128c-20.667 15.333 -44.667 30 -72 44l-71 37c-143.333 74.667 -215 161.334 -215 260.001
c0 41.333 12 84.333 36 129c52 96.667 134.333 145 247 145c114 0 202 -56 264 -168zM409.001 -62l122 -51l-180 -235l-92 49z" />
    <glyph glyph-name="ydieresis" unicode="&#xff;" horiz-adv-x="991" 
d="M412 164l-441 797h218l323 -613l299 613h209l-776 -1510h-207zM281 1424c32.667 0 61.334 -12.333 86.001 -37s37 -53.334 37 -86.001c0 -34.667 -11.833 -64.167 -35.5 -88.5s-52.834 -36.5 -87.501 -36.5s-64.167 12.167 -88.5 36.5s-36.5 53.833 -36.5 88.5
c0 32.667 12.667 61.334 38 86.001s54.333 37 87 37zM713 1424c34 0 62.999 -11.999 86.999 -35.999s36 -53 36 -87c0 -35.333 -11.667 -65 -35 -89s-52.666 -36 -87.999 -36c-34.667 0 -64.167 12.167 -88.5 36.5s-36.5 53.833 -36.5 88.5
c0 33.333 12.5 62.166 37.5 86.499s54.167 36.5 87.5 36.5z" />
    <glyph glyph-name="Gbreve" unicode="&#x11e;" horiz-adv-x="1596" 
d="M944 781h613.002v-68c0 -209.333 -68 -385.666 -204 -528.999c-138 -146 -311 -219 -519 -219h-44c-6.66699 1.33301 -11.334 2 -14.001 2c-106.667 0 -215.667 32.667 -327 98c-93.333 54.667 -170 122.667 -230 204c-118.667 161.333 -178 332 -178 512
c0 124.667 34 249 102 373c103.333 189.333 254 316.666 452 381.999c82.667 27.333 159 41 229 41c140 0 260.5 -23.167 361.5 -69.5s198.167 -122.166 291.5 -227.499l-141 -131c-127.333 168 -294 252 -500 252c-101.333 0 -198.333 -27.333 -291 -82
c-89.333 -52 -162.666 -122 -219.999 -210c-62 -94.667 -93 -200 -93 -316l4 -12c0 -112 28 -217.833 84 -317.5s131.667 -178.834 227 -237.501c89.333 -54.667 177.333 -82 264 -82c89.333 0 174.166 19.833 254.499 59.5s146.166 95.5 197.499 167.5
c56.667 79.333 85 157 85 233h-404v177zM1056 2104h147c-27.333 -126.667 -99 -212 -215 -256c-54.667 -20.667 -116 -31 -184 -31c-67.333 0 -135 30 -203 90c-60 53.333 -98 119 -114 197h149c31.333 -94 93.333 -146 186 -156c120 0 198 52 234 156z" />
    <glyph glyph-name="gbreve" unicode="&#x11f;" horiz-adv-x="1137" 
d="M840 789v172h184v-961c0 -281.333 -81.333 -452 -244 -512c-66.667 -24.667 -139 -37 -217 -37c-191.333 0 -327.333 69 -408 207c-38.667 66 -58 141 -58 225h184c0 -178.667 99.667 -268 299 -268c173.333 0 260 105.667 260 317v224l-41 -62
c-34 -51.333 -83.333 -87.333 -148 -108c-39.333 -12.667 -89.666 -19 -150.999 -19c-182.667 0 -313.334 85 -392.001 255c-38 82 -57 174.667 -57 278c0 121.333 38.333 230.333 115 327c84.667 106.667 194.667 160 330 160c148 0 262.667 -66 344 -198zM852 488
c0 143.333 -55.3311 243.333 -165.998 300c-46.667 24 -92.334 36 -137.001 36c-128.667 0 -220.334 -56.333 -275.001 -169c-25.333 -52 -38 -106.333 -38 -163c0 -79.333 16.667 -149.333 50 -210c37.333 -68 91 -113.667 161 -137c28 -9.33301 58 -14 90 -14
c127.333 0 219 56 275 168c26.667 53.333 40 116.333 40 189zM763.002 1474h147c-27.333 -126.667 -99 -212 -215 -256c-54.667 -20.667 -116 -31 -184 -31c-67.333 0 -135 30 -203 90c-60 53.333 -98 119 -114 197h149c31.333 -94 93.333 -146 186 -156
c120 0 198 52 234 156z" />
    <glyph glyph-name="Idotaccent" unicode="&#x130;" horiz-adv-x="475" 
d="M140 1544h192v-1544h-192v1544zM247 2048c30.667 0 56.333 -11 77 -33s31 -48.333 31 -79s-11 -56 -33 -76s-48.333 -30 -79 -30s-56 11 -76 33s-30 48.667 -30 80c0 28 11.333 52.5 34 73.5s48 31.5 76 31.5z" />
    <glyph glyph-name="dotlessi" unicode="&#x131;" horiz-adv-x="520" 
d="M168 961h185v-961h-185v961z" />
    <glyph glyph-name="OE" unicode="&#x152;" horiz-adv-x="2341" 
d="M1473 1544l807 0.000976562v-176h-631v-432h614v-176h-614v-584h631v-176h-807v260c-151.333 -195.333 -357 -293 -617 -293c-223.333 0 -414.333 76 -573 228c-161.333 154.667 -242 343 -242 565c0 227.333 77.833 420.666 233.5 579.999s346.834 239 573.501 239
c174.667 0 335.667 -54.667 483 -164c65.333 -48 112.666 -97 141.999 -147v276zM1465 760.001c0 115.333 -24.667 221.001 -74 317.001c-52 101.333 -125.5 180.666 -220.5 237.999s-201.167 86 -318.5 86c-180.667 0 -329.167 -61.5 -445.5 -184.5
s-174.5 -275.167 -174.5 -456.5c0 -154.667 57 -293.667 171 -417c120 -130 268.333 -195 445 -195c186 0 337.333 66.667 454 200c108.667 124.667 163 262 163 412z" />
    <glyph glyph-name="oe" unicode="&#x153;" horiz-adv-x="1835" 
d="M1620 588c-20 160 -119 240 -297 240c-62.667 -6.66699 -115.667 -33 -159 -79c-41.333 -43.333 -68 -97 -80 -161h536zM881 471c0 124.667 -51.333 221.666 -154 290.999c-48.667 32.667 -104.667 49 -168 49c-90 0 -167.333 -29.667 -232 -89
c-66 -61.333 -99 -136.666 -99 -225.999c0 -122.667 45.333 -218.667 136 -288c44.667 -34 96.667 -54 156 -60c100 0 184 28.333 252 85c72.667 60.667 109 140 109 238zM1649 319.999l159.999 -92c-53.333 -103.333 -140.666 -179 -261.999 -227
c-57.333 -22.667 -115.666 -34 -174.999 -34c-186.667 0 -322.334 71 -407.001 213c-60.667 -93.333 -149.334 -157.666 -266.001 -192.999c-52.667 -16 -101.334 -24 -146.001 -24c-184.667 0 -329 80 -433 240c-52.667 80.667 -79 162.667 -79 246
c0 170.667 56.667 306.667 170 408c97.333 86.667 202 130 314 130c86 0 168.5 -19 247.5 -57s143.167 -90.667 192.5 -158c94 143.333 229.667 215 407 215c196 0 327.667 -91.333 395 -274c28 -76 42 -151 42 -225v-39h-734c10 -91.333 38 -165 84 -221
c52.667 -64.667 122.334 -97 209.001 -97c59.333 0 114.833 17.667 166.5 53s89.834 80.666 114.501 135.999z" />
    <glyph glyph-name="Scedilla" unicode="&#x15e;" horiz-adv-x="1100" 
d="M836 1252c-58 99.333 -142 149 -252 149c-97.333 0 -171.333 -38 -222 -114c-22.667 -34 -34 -67 -34 -99c0 -98 50.333 -166.333 151 -205l176 -68c179.333 -69.333 293 -160.666 341 -273.999c27.333 -64.667 41 -130 41 -196c0 -97.333 -27.333 -184.833 -82 -262.5
s-127.667 -135.834 -219 -174.501c-64 -27.333 -126.333 -41 -187 -41c-171.333 0 -304.333 69 -399 207c-46 66.667 -73.333 142 -82 226l192 41c0 -61.333 15.667 -115.666 47 -162.999c57.333 -86.667 141.333 -130 252 -130c74 0 137.833 24.333 191.5 73
s83.5 109.667 89.5 183l4 51c6 76 -21.333 137.667 -82 185c-48 37.333 -120 76.666 -216 117.999c-113.333 48.667 -188 83.667 -224 105c-124.667 74 -187 183.667 -187 329c0 98 40.333 185.333 121 262c88 83.333 200 125 336 125c173.333 0 305 -78.333 395 -235z
M576 -37l143 -60l-211 -276l-109 57z" />
    <glyph glyph-name="scedilla" unicode="&#x15f;" horiz-adv-x="789" 
d="M512 740c-28 56 -69.666 84 -124.999 84c-28.667 0 -52.167 -9.33301 -70.5 -28s-27.5 -42.334 -27.5 -71.001c0 -38 28.667 -71 86 -99l161 -79c132.667 -65.333 199 -155.333 199 -270c0 -112 -52.333 -200.333 -157 -265c-48.667 -30 -101.334 -45 -158.001 -45
c-174.667 0 -290.667 71 -348 213l160 76c36 -84.667 93.333 -127 172 -127c34 0 64.833 10.833 92.5 32.5s45.167 49.167 52.5 82.5c0 49.333 -24.667 92 -74 128c-20.667 15.333 -44.667 30 -72 44l-71 37c-143.333 74.667 -215 161.334 -215 260.001
c0 41.333 12 84.333 36 129c52 96.667 134.333 145 247 145c114 0 202 -56 264 -168zM409.001 -62l122 -51l-180 -235l-92 49z" />
    <glyph glyph-name="florin" unicode="&#x192;" horiz-adv-x="1184" 
d="M508 897h-130.998l14 140h146l43 251c20 116.667 48 205.667 84 267c61.333 104.667 163 157 305 157c42.667 0 87.667 -4 135 -12l-29 -176c-42.667 10.667 -75.334 16 -98.001 16c-100.667 0 -164.667 -69.667 -192 -209l-58 -294h264l-18 -140h-268l-133 -729
c-18 -98 -38.667 -173 -62 -225c-74.667 -165.333 -215.334 -248 -422.001 -248h-48c-5.33301 1.33301 -9 2 -11 2l31 174l41 -2c152 -7.33301 247.333 100.667 286 324z" />
    <glyph glyph-name="circumflex" unicode="&#x2c6;" horiz-adv-x="965" 
d="M479 1503l330 -294l-121 -97l-209 197l-206 -197l-121 97z" />
    <glyph glyph-name="caron" unicode="&#x2c7;" 
 />
    <glyph glyph-name="c274" unicode="&#x2c8;" horiz-adv-x="520" 
d="M168 961h185v-961h-185v961z" />
    <glyph glyph-name="macron" unicode="&#x2c9;" 
 />
    <glyph glyph-name="c276" unicode="&#x2ca;" 
 />
    <glyph glyph-name="c277" unicode="&#x2cb;" 
 />
    <glyph glyph-name="c278" unicode="&#x2cc;" 
 />
    <glyph glyph-name="c279" unicode="&#x2cd;" 
 />
    <glyph glyph-name="c280" unicode="&#x2ce;" 
 />
    <glyph glyph-name="c281" unicode="&#x2cf;" 
 />
    <glyph glyph-name="c282" unicode="&#x2d0;" 
 />
    <glyph glyph-name="c283" unicode="&#x2d1;" 
 />
    <glyph glyph-name="c284" unicode="&#x2d2;" 
 />
    <glyph glyph-name="c285" unicode="&#x2d3;" 
 />
    <glyph glyph-name="c286" unicode="&#x2d4;" 
 />
    <glyph glyph-name="c287" unicode="&#x2d5;" 
 />
    <glyph glyph-name="c288" unicode="&#x2d6;" 
 />
    <glyph glyph-name="c289" unicode="&#x2d7;" 
 />
    <glyph glyph-name="breve" unicode="&#x2d8;" horiz-adv-x="1004" 
d="M713 1424h147c-27.333 -126.667 -99 -212 -215 -256c-54.667 -20.667 -116 -31 -184 -31c-67.333 0 -135 30 -203 90c-60 53.333 -98 119 -114 197h149c31.333 -94 93.333 -146 186 -156c120 0 198 52 234 156z" />
    <glyph glyph-name="dotaccent" unicode="&#x2d9;" 
 />
    <glyph glyph-name="ring" unicode="&#x2da;" horiz-adv-x="735" 
d="M373 1503c50 0 92.834 -17.833 128.501 -53.5s53.5 -78.5 53.5 -128.5c0 -72 -30 -126 -90 -162c-28.667 -17.333 -59.334 -26 -92.001 -26c-52.667 0 -97.167 18.167 -133.5 54.5s-54.5 80.833 -54.5 133.5c0 50.667 18.5 93.667 55.5 129s81.167 53 132.5 53z
M373.001 1411c-26.667 0 -49.334 -8.33105 -68.001 -24.998s-28 -38.334 -28 -65.001s9.33301 -49.334 28 -68.001s41.334 -28 68.001 -28c25.333 0 47 9.66699 65 29s27 41.666 27 66.999c0 24.667 -9.16699 45.834 -27.5 63.501s-39.833 26.5 -64.5 26.5z" />
    <glyph glyph-name="ogonek" unicode="&#x2db;" 
 />
    <glyph glyph-name="tilde" unicode="&#x2dc;" horiz-adv-x="1045" 
d="M819 1411l96.999 -80c-22 -48 -55 -87.333 -99 -118c-46 -32.667 -94.333 -49 -145 -49c-31.333 4 -57.666 10.333 -78.999 19l-105 43c-52 21.333 -90.333 35.333 -115 42h-20c-50 0 -91.667 -30.667 -125 -92l-97 80c63.333 109.333 140 164 230 164
c36.667 0 88.667 -16 156 -48l78 -37c15.333 -7.33301 37 -13.333 65 -18c8 0 14.667 -1.33301 20 -4c58 0 104.333 32.667 139 98z" />
    <glyph glyph-name="endash" unicode="&#x2013;" horiz-adv-x="1024" 
d="M0 735h1024v-155h-1024v155z" />
    <glyph glyph-name="emdash" unicode="&#x2014;" horiz-adv-x="2048" 
d="M0 580v151h2048v-151h-2048z" />
    <glyph glyph-name="c290" unicode="&#x2015;" 
 />
    <glyph glyph-name="c291" unicode="&#x2016;" 
 />
    <glyph glyph-name="c292" unicode="&#x2017;" 
 />
    <glyph glyph-name="quoteleft" unicode="&#x2018;" horiz-adv-x="568" 
d="M396 1577l112 -45l-223 -563l-160 63z" />
    <glyph glyph-name="quoteright" unicode="&#x2019;" horiz-adv-x="568" 
d="M285 1579l160 -63l-273 -547l-116 47z" />
    <glyph glyph-name="quotesinglbase" unicode="&#x201a;" 
 />
    <glyph glyph-name="c293" unicode="&#x201b;" 
 />
    <glyph glyph-name="quotedblleft" unicode="&#x201c;" horiz-adv-x="899" 
d="M735 1577l113 -49l-223 -563l-160 67zM391 1577l117 -45l-223 -563l-160 63z" />
    <glyph glyph-name="quotedblright" unicode="&#x201d;" horiz-adv-x="899" 
d="M164 965l-117 47l230 565l159 -65zM504 965l-117 47l230 565l159 -65z" />
    <glyph glyph-name="quotedblbase" unicode="&#x201e;" horiz-adv-x="899" 
d="M215 -369l-110 49l223 564l160 -64zM559 -369l-114 49l223 564l160 -68z" />
    <glyph glyph-name="c294" unicode="&#x201f;" 
 />
    <glyph glyph-name="dagger" unicode="&#x2020;" horiz-adv-x="1184" 
d="M500 1217v563h184v-563h373v-176h-373v-1221h-184v1221h-371v176h371z" />
    <glyph glyph-name="daggerdbl" unicode="&#x2021;" horiz-adv-x="1184" 
d="M500 1288v492h184v-492h373v-176h-373v-247h373v-177h-373v-868h-184v868h-371v177h371v247h-371v176h371z" />
    <glyph glyph-name="bullet" unicode="&#x2022;" horiz-adv-x="592" 
d="M297 643c33.333 0 61.5 -11.333 84.5 -34s34.5 -50.667 34.5 -84c0 -32 -11.833 -60.167 -35.5 -84.5s-51.5 -36.5 -83.5 -36.5c-32.667 0 -61 12 -85 36s-36 52.333 -36 85c0 33.333 11.833 61.333 35.5 84s52.167 34 85.5 34z" />
    <glyph glyph-name="c295" unicode="&#x2023;" 
 />
    <glyph glyph-name="c296" unicode="&#x2024;" 
 />
    <glyph glyph-name="c297" unicode="&#x2025;" 
 />
    <glyph glyph-name="ellipsis" unicode="&#x2026;" horiz-adv-x="2048" 
d="M340 205c32 0 60.167 -11.667 84.5 -35s36.5 -50.666 36.5 -81.999c0 -32.667 -12 -61 -36 -85s-52.333 -36 -85 -36s-61 12 -85 36s-36 52.333 -36 85c0 31.333 12.167 58.666 36.5 81.999s52.5 35 84.5 35zM1024 205c32 0 60.167 -11.667 84.5 -35
s36.5 -50.666 36.5 -81.999c0 -32.667 -12 -61 -36 -85s-52.333 -36 -85 -36s-60.167 12 -82.5 36s-33.5 52.333 -33.5 85c0 31.333 11.5 58.666 34.5 81.999s50.167 35 81.5 35zM1708 205c32.667 0 61 -11.3311 85 -33.998s36 -50.334 36 -83.001
c0 -33.333 -11.833 -61.833 -35.5 -85.5s-52.167 -35.5 -85.5 -35.5c-32.667 0 -61 12 -85 36s-36 52.333 -36 85c0 31.333 12.167 58.666 36.5 81.999s52.5 35 84.5 35z" />
    <glyph glyph-name="c298" unicode="&#x2027;" 
 />
    <glyph glyph-name="c299" unicode="&#x2028;" 
 />
    <glyph glyph-name="c300" unicode="&#x2029;" 
 />
    <glyph glyph-name="c301" unicode="&#x202a;" 
 />
    <glyph glyph-name="c302" unicode="&#x202b;" 
 />
    <glyph glyph-name="c303" unicode="&#x202c;" 
 />
    <glyph glyph-name="c304" unicode="&#x202d;" 
 />
    <glyph glyph-name="c305" unicode="&#x202e;" 
 />
    <glyph glyph-name="c306" unicode="&#x202f;" 
 />
    <glyph glyph-name="perthousand" unicode="&#x2030;" horiz-adv-x="2271" 
d="M1141 1577l92 -53l-901 -1557l-96 54zM408 1577c136.667 0 240.333 -57.999 311 -173.999c32.667 -54 49 -113.333 49 -178c0 -134.667 -60 -236 -180 -304c-56 -32 -116 -48 -180 -48c-138.667 0 -243.667 59 -315 177c-33.333 55.333 -50 113.666 -50 174.999
c0 135.333 61.667 237.333 185 306c56 30.667 116 46 180 46zM403.999 1456c-63.333 0 -118.5 -22 -165.5 -66s-70.5 -97.667 -70.5 -161c0 -64.667 23.167 -119.667 69.5 -165s101.833 -68 166.5 -68c92.667 0 162 38.667 208 116c20.667 34.667 31 73.667 31 117
c0 64 -23.667 117.833 -71 161.5s-103.333 65.5 -168 65.5zM1067 672.001c138.667 0 242.665 -58.999 311.998 -176.999c32.667 -55.333 49 -113.666 49 -174.999c0 -134 -60.333 -236.667 -181 -308c-55.333 -32.667 -115.333 -49 -180 -49
c-137.333 0 -240.666 59.667 -309.999 179c-32 55.333 -48 114.666 -48 177.999c0 133.333 59.667 234.666 179 303.999c54.667 32 114.334 48 179.001 48zM1067 549.002c-65.333 0 -121 -21.665 -167 -64.998c-48 -44.667 -72 -99.334 -72 -164.001s24 -119 72 -163
c46 -43.333 101.667 -65 167 -65c90 0 158.333 37.667 205 113c22 35.333 33 73.666 33 114.999c0 87.333 -39.333 153.333 -118 198c-36.667 20.667 -76.667 31 -120 31zM1872 672.004c138.667 0 243 -58.666 313 -175.999c32 -53.333 48 -112 48 -176
c0 -135.333 -60 -238 -180 -308c-56 -32.667 -116.333 -49 -181 -49c-137.333 0 -241 59.667 -311 179c-32.667 55.333 -49 114.666 -49 177.999c0 134 60 235.667 180 305c54.667 31.333 114.667 47 180 47zM1872 549.005c-89.333 0 -156.667 -37.665 -202 -112.998
c-22 -36.667 -33 -75.334 -33 -116.001c0 -64.667 22.833 -118.834 68.5 -162.501s101.167 -65.5 166.5 -65.5c91.333 0 159.333 37.667 204 113c21.333 36 32 74.333 32 115c0 65.333 -22.833 119.833 -68.5 163.5s-101.5 65.5 -167.5 65.5z" />
    <glyph glyph-name="c307" unicode="&#x2031;" 
 />
    <glyph glyph-name="c308" unicode="&#x2032;" 
 />
    <glyph glyph-name="c309" unicode="&#x2033;" 
 />
    <glyph glyph-name="c310" unicode="&#x2034;" 
 />
    <glyph glyph-name="c311" unicode="&#x2035;" 
 />
    <glyph glyph-name="c312" unicode="&#x2036;" 
 />
    <glyph glyph-name="c313" unicode="&#x2037;" 
 />
    <glyph glyph-name="c314" unicode="&#x2038;" 
 />
    <glyph glyph-name="guilsinglleft" unicode="&#x2039;" horiz-adv-x="688" 
d="M416 1149l117 -84l-305 -409l305 -392l-113 -84l-377 476z" />
    <glyph glyph-name="guilsinglright" unicode="&#x203a;" horiz-adv-x="688" 
d="M273 180l-117 84l305 392l-305 409l113 84l374 -493z" />
    <glyph glyph-name="trademark" unicode="&#x2122;" horiz-adv-x="1923" 
d="M68 1544h700v-129h-284v-731h-131v731h-285v129zM924 1544h217l248 -608l256 608h211v-860h-131v731l-297 -731h-80l-287 731h-4v-731h-133v860z" />
    <glyph glyph-name="fi" unicode="&#xf001;" horiz-adv-x="1049" 
d="M164 789h-84v172h84v475c0 246 101.667 369 305 369c50 0 95 -8.33301 135 -25v-188c-47.333 27.333 -90.333 41 -129 41c-84.667 0 -127 -77.333 -127 -232v-440h256v-172h-256v-789h-184v789zM793 1528c35.333 0 64.666 -12.999 87.999 -38.999s35 -56.667 35 -92
c0 -34.667 -12.5 -64.167 -37.5 -88.5s-54.833 -36.5 -89.5 -36.5c-37.333 0 -68.166 12.833 -92.499 38.5s-36.5 57.167 -36.5 94.5c0 33.333 13.667 62.166 41 86.499s58 36.5 92 36.5zM697 961.001h184v-961h-184v961z" />
    <glyph glyph-name="fl" unicode="&#xf002;" horiz-adv-x="1016" 
d="M164 789h-84v172h84v475c0 246 101.667 369 305 369c50 0 95 -8.33301 135 -25v-188c-47.333 27.333 -90.333 41 -129 41c-84.667 0 -127 -77.333 -127 -232v-440h256v-172h-256v-789h-184v789zM701 1780h184v-1780h-184v1780z" />
    <glyph glyph-name=".null" horiz-adv-x="0" 
 />
    <glyph glyph-name="nonmarkingreturn" horiz-adv-x="592" 
 />
    <glyph glyph-name="glyph4" horiz-adv-x="592" 
 />
    <glyph glyph-name="glyph5" horiz-adv-x="592" 
 />
    <glyph glyph-name="glyph227" horiz-adv-x="592" 
 />
    <glyph glyph-name="glyph228" horiz-adv-x="592" 
 />
    </font>
</defs>
</svg>
